<svg width="620" height="553" viewBox="0 0 620 553" fill="none" xmlns="http://www.w3.org/2000/svg">
<g filter="url(#filter0_d_169_1464)">
<rect x="48" y="46" width="524" height="457" rx="12" fill="white"/>
<rect x="48" y="46" width="524" height="457" rx="12" stroke="#09551F"/>
</g>
<path d="M443 275L310.134 141.5L177.385 274.62L244 390H380L443 275Z" fill="#E4EDE4"/>
<path d="M177 275L177.385 274.62M177.385 274.62L310.134 141.5L443 275L380 390H244L177.385 274.62Z" stroke="#09551F"/>
<circle opacity="0.25" cx="310" cy="275" r="94.5" stroke="#09551F" stroke-dasharray="2 2"/>
<circle opacity="0.25" cx="310" cy="275" r="133.5" stroke="#09551F" stroke-dasharray="2 2"/>
<circle opacity="0.25" cx="310" cy="275" r="49.5" stroke="#09551F" stroke-dasharray="2 2"/>
<circle cx="310" cy="142" r="6.625" fill="white" stroke="#8CAA91" stroke-width="0.75"/>
<circle cx="443" cy="275" r="6.625" fill="white" stroke="#8CAA91" stroke-width="0.75"/>
<circle cx="176" cy="275" r="6.625" fill="white" stroke="#8CAA91" stroke-width="0.75"/>
<circle cx="380" cy="390" r="6.625" fill="white" stroke="#8CAA91" stroke-width="0.75"/>
<circle cx="240" cy="390" r="6.625" fill="white" stroke="#8CAA91" stroke-width="0.75"/>
<path d="M277.511 113V104.6H280.907C281.611 104.6 282.195 104.712 282.659 104.936C283.131 105.16 283.487 105.476 283.727 105.884C283.967 106.284 284.087 106.756 284.087 107.3C284.087 107.876 283.939 108.38 283.643 108.812C283.347 109.236 282.895 109.544 282.287 109.736L284.327 113H282.251L280.487 109.928H279.299V113H277.511ZM279.299 108.512H280.559C281.223 108.512 281.679 108.412 281.927 108.212C282.175 108.004 282.299 107.7 282.299 107.3C282.299 106.9 282.175 106.6 281.927 106.4C281.679 106.192 281.223 106.088 280.559 106.088H279.299V108.512ZM289.248 113.144C288.672 113.144 288.14 113.028 287.652 112.796C287.172 112.556 286.788 112.196 286.5 111.716C286.212 111.228 286.068 110.616 286.068 109.88V109.64C286.068 108.936 286.204 108.352 286.476 107.888C286.756 107.424 287.128 107.076 287.592 106.844C288.056 106.612 288.568 106.496 289.128 106.496C290.128 106.496 290.888 106.76 291.408 107.288C291.928 107.816 292.188 108.58 292.188 109.58V110.252H287.688C287.704 110.628 287.784 110.936 287.928 111.176C288.08 111.408 288.272 111.58 288.504 111.692C288.736 111.796 288.984 111.848 289.248 111.848C289.656 111.848 289.964 111.788 290.172 111.668C290.38 111.548 290.528 111.372 290.616 111.14H292.068C291.94 111.804 291.624 112.304 291.12 112.64C290.616 112.976 289.992 113.144 289.248 113.144ZM289.188 107.792C288.94 107.792 288.7 107.832 288.468 107.912C288.236 107.992 288.052 108.136 287.916 108.344C287.78 108.544 287.704 108.812 287.688 109.148H290.652C290.644 108.788 290.572 108.512 290.436 108.32C290.308 108.12 290.136 107.984 289.92 107.912C289.704 107.832 289.46 107.792 289.188 107.792ZM296.489 113.072C296.001 113.072 295.601 113.008 295.289 112.88C294.985 112.744 294.761 112.52 294.617 112.208C294.473 111.888 294.401 111.444 294.401 110.876V104.6H295.973V110.684C295.973 111.092 296.029 111.368 296.141 111.512C296.261 111.656 296.493 111.728 296.837 111.728C296.925 111.728 297.001 111.728 297.065 111.728C297.129 111.72 297.193 111.712 297.257 111.704V113.024C297.217 113.04 297.149 113.052 297.053 113.06C296.957 113.068 296.857 113.072 296.753 113.072C296.649 113.072 296.561 113.072 296.489 113.072ZM299.422 113V106.64H300.994V113H299.422ZM300.202 106.028C299.922 106.028 299.69 105.94 299.506 105.764C299.33 105.588 299.242 105.36 299.242 105.08C299.242 104.8 299.33 104.572 299.506 104.396C299.69 104.22 299.918 104.132 300.19 104.132C300.478 104.132 300.71 104.22 300.886 104.396C301.07 104.572 301.162 104.8 301.162 105.08C301.162 105.36 301.07 105.588 300.886 105.764C300.71 105.94 300.482 106.028 300.202 106.028ZM305.456 113.144C305 113.144 304.612 113.06 304.292 112.892C303.972 112.716 303.728 112.476 303.56 112.172C303.392 111.868 303.308 111.524 303.308 111.14C303.308 110.5 303.496 110.02 303.872 109.7C304.256 109.38 304.828 109.22 305.588 109.22H307.484V108.92C307.484 108.504 307.388 108.212 307.196 108.044C307.012 107.876 306.716 107.792 306.308 107.792C305.948 107.792 305.688 107.856 305.528 107.984C305.368 108.104 305.276 108.256 305.252 108.44H303.668C303.692 108.072 303.808 107.744 304.016 107.456C304.232 107.16 304.536 106.928 304.928 106.76C305.328 106.584 305.808 106.496 306.368 106.496C306.912 106.496 307.384 106.576 307.784 106.736C308.192 106.896 308.508 107.156 308.732 107.516C308.956 107.868 309.068 108.344 309.068 108.944V111.38C309.068 111.716 309.072 112.012 309.08 112.268C309.096 112.516 309.12 112.76 309.152 113H307.676C307.644 112.824 307.624 112.692 307.616 112.604C307.616 112.508 307.616 112.368 307.616 112.184C307.448 112.44 307.184 112.664 306.824 112.856C306.464 113.048 306.008 113.144 305.456 113.144ZM305.948 111.92C306.204 111.92 306.448 111.876 306.68 111.788C306.92 111.692 307.112 111.548 307.256 111.356C307.408 111.156 307.484 110.904 307.484 110.6V110.3H305.888C305.584 110.3 305.344 110.372 305.168 110.516C305 110.652 304.916 110.84 304.916 111.08C304.916 111.336 305.004 111.54 305.18 111.692C305.356 111.844 305.612 111.92 305.948 111.92ZM314.99 113.144C314.462 113.144 314.026 113.036 313.682 112.82C313.338 112.604 313.086 112.352 312.926 112.064V113H311.462V104.6H313.034V107.516C313.234 107.212 313.498 106.968 313.826 106.784C314.162 106.592 314.55 106.496 314.99 106.496C315.838 106.496 316.498 106.76 316.97 107.288C317.45 107.808 317.69 108.592 317.69 109.64V109.88C317.69 110.608 317.578 111.216 317.354 111.704C317.138 112.184 316.83 112.544 316.43 112.784C316.03 113.024 315.55 113.144 314.99 113.144ZM314.618 111.8C315.034 111.8 315.382 111.644 315.662 111.332C315.942 111.012 316.082 110.528 316.082 109.88V109.64C316.082 109.04 315.946 108.592 315.674 108.296C315.41 107.992 315.058 107.84 314.618 107.84C314.322 107.84 314.05 107.9 313.802 108.02C313.562 108.132 313.374 108.304 313.238 108.536C313.102 108.76 313.034 109.048 313.034 109.4V110.12C313.034 110.496 313.098 110.812 313.226 111.068C313.362 111.316 313.55 111.5 313.79 111.62C314.038 111.74 314.314 111.8 314.618 111.8ZM319.965 113V106.64H321.537V113H319.965ZM320.745 106.028C320.465 106.028 320.233 105.94 320.049 105.764C319.873 105.588 319.785 105.36 319.785 105.08C319.785 104.8 319.873 104.572 320.049 104.396C320.233 104.22 320.461 104.132 320.733 104.132C321.021 104.132 321.253 104.22 321.429 104.396C321.613 104.572 321.705 104.8 321.705 105.08C321.705 105.36 321.613 105.588 321.429 105.764C321.253 105.94 321.025 106.028 320.745 106.028ZM326.251 113.072C325.763 113.072 325.363 113.008 325.051 112.88C324.747 112.744 324.523 112.52 324.379 112.208C324.235 111.888 324.163 111.444 324.163 110.876V104.6H325.735V110.684C325.735 111.092 325.791 111.368 325.903 111.512C326.023 111.656 326.255 111.728 326.599 111.728C326.687 111.728 326.763 111.728 326.827 111.728C326.891 111.72 326.955 111.712 327.019 111.704V113.024C326.979 113.04 326.911 113.052 326.815 113.06C326.719 113.068 326.619 113.072 326.515 113.072C326.411 113.072 326.323 113.072 326.251 113.072ZM329.184 113V106.64H330.756V113H329.184ZM329.964 106.028C329.684 106.028 329.452 105.94 329.268 105.764C329.092 105.588 329.004 105.36 329.004 105.08C329.004 104.8 329.092 104.572 329.268 104.396C329.452 104.22 329.68 104.132 329.952 104.132C330.24 104.132 330.472 104.22 330.648 104.396C330.832 104.572 330.924 104.8 330.924 105.08C330.924 105.36 330.832 105.588 330.648 105.764C330.472 105.94 330.244 106.028 329.964 106.028ZM335.89 113.072C335.394 113.072 334.986 113.004 334.666 112.868C334.346 112.724 334.11 112.496 333.958 112.184C333.814 111.872 333.742 111.468 333.742 110.972V107.96H332.89V106.64H333.742V105.2H335.314V106.64H336.85V107.96H335.314V110.72C335.314 111.08 335.378 111.34 335.506 111.5C335.642 111.652 335.89 111.728 336.25 111.728C336.49 111.728 336.73 111.716 336.97 111.692V113.012C336.818 113.028 336.658 113.04 336.49 113.048C336.33 113.064 336.13 113.072 335.89 113.072ZM340.3 115.544C340.18 115.544 340.06 115.532 339.94 115.508V114.164C340.06 114.188 340.18 114.2 340.3 114.2C340.46 114.2 340.592 114.16 340.696 114.08C340.808 114 340.908 113.872 340.996 113.696C341.092 113.52 341.196 113.288 341.308 113L338.62 106.64H340.396L342.124 111.032L343.708 106.64H345.34L342.892 113C342.66 113.6 342.436 114.084 342.22 114.452C342.004 114.828 341.748 115.104 341.452 115.28C341.164 115.456 340.78 115.544 340.3 115.544Z" fill="#41653B"/>
<path d="M462.572 280V271.6H465.968C466.672 271.6 467.256 271.712 467.72 271.936C468.192 272.16 468.548 272.476 468.788 272.884C469.028 273.284 469.148 273.756 469.148 274.3C469.148 274.876 469 275.38 468.704 275.812C468.408 276.236 467.956 276.544 467.348 276.736L469.388 280H467.312L465.548 276.928H464.36V280H462.572ZM464.36 275.512H465.62C466.284 275.512 466.74 275.412 466.988 275.212C467.236 275.004 467.36 274.7 467.36 274.3C467.36 273.9 467.236 273.6 466.988 273.4C466.74 273.192 466.284 273.088 465.62 273.088H464.36V275.512ZM474.309 280.144C473.733 280.144 473.201 280.028 472.713 279.796C472.233 279.556 471.849 279.196 471.561 278.716C471.273 278.228 471.129 277.616 471.129 276.88V276.64C471.129 275.936 471.265 275.352 471.537 274.888C471.817 274.424 472.189 274.076 472.653 273.844C473.117 273.612 473.629 273.496 474.189 273.496C475.189 273.496 475.949 273.76 476.469 274.288C476.989 274.816 477.249 275.58 477.249 276.58V277.252H472.749C472.765 277.628 472.845 277.936 472.989 278.176C473.141 278.408 473.333 278.58 473.565 278.692C473.797 278.796 474.045 278.848 474.309 278.848C474.717 278.848 475.025 278.788 475.233 278.668C475.441 278.548 475.589 278.372 475.677 278.14H477.129C477.001 278.804 476.685 279.304 476.181 279.64C475.677 279.976 475.053 280.144 474.309 280.144ZM474.249 274.792C474.001 274.792 473.761 274.832 473.529 274.912C473.297 274.992 473.113 275.136 472.977 275.344C472.841 275.544 472.765 275.812 472.749 276.148H475.713C475.705 275.788 475.633 275.512 475.497 275.32C475.369 275.12 475.197 274.984 474.981 274.912C474.765 274.832 474.521 274.792 474.249 274.792ZM481.97 280.144C481.45 280.144 481.014 280.092 480.662 279.988C480.31 279.876 480.018 279.728 479.786 279.544C479.562 279.352 479.394 279.136 479.282 278.896C479.178 278.656 479.114 278.404 479.09 278.14H480.674C480.714 278.348 480.838 278.52 481.046 278.656C481.254 278.784 481.562 278.848 481.97 278.848C482.434 278.848 482.766 278.784 482.966 278.656C483.166 278.528 483.266 278.364 483.266 278.164C483.266 278.02 483.222 277.904 483.134 277.816C483.046 277.72 482.89 277.64 482.666 277.576C482.442 277.504 482.126 277.432 481.718 277.36C481.366 277.312 481.042 277.248 480.746 277.168C480.45 277.08 480.19 276.96 479.966 276.808C479.75 276.656 479.578 276.468 479.45 276.244C479.33 276.012 479.27 275.732 479.27 275.404C479.27 275.052 479.374 274.732 479.582 274.444C479.798 274.156 480.106 273.928 480.506 273.76C480.914 273.584 481.402 273.496 481.97 273.496C482.586 273.496 483.078 273.592 483.446 273.784C483.814 273.976 484.09 274.224 484.274 274.528C484.458 274.832 484.57 275.156 484.61 275.5H483.026C482.962 275.268 482.838 275.092 482.654 274.972C482.47 274.852 482.242 274.792 481.97 274.792C481.57 274.792 481.282 274.856 481.106 274.984C480.938 275.104 480.854 275.256 480.854 275.44C480.854 275.632 480.946 275.78 481.13 275.884C481.322 275.988 481.71 276.08 482.294 276.16C482.654 276.208 482.986 276.28 483.29 276.376C483.602 276.464 483.874 276.584 484.106 276.736C484.338 276.888 484.518 277.08 484.646 277.312C484.782 277.536 484.85 277.812 484.85 278.14C484.85 278.532 484.742 278.88 484.526 279.184C484.318 279.48 483.998 279.716 483.566 279.892C483.142 280.06 482.61 280.144 481.97 280.144ZM489.856 280.144C489.28 280.144 488.748 280.028 488.26 279.796C487.78 279.556 487.396 279.196 487.108 278.716C486.82 278.228 486.676 277.616 486.676 276.88V276.64C486.676 275.936 486.812 275.352 487.084 274.888C487.364 274.424 487.736 274.076 488.2 273.844C488.664 273.612 489.176 273.496 489.736 273.496C490.736 273.496 491.496 273.76 492.016 274.288C492.536 274.816 492.796 275.58 492.796 276.58V277.252H488.296C488.312 277.628 488.392 277.936 488.536 278.176C488.688 278.408 488.88 278.58 489.112 278.692C489.344 278.796 489.592 278.848 489.856 278.848C490.264 278.848 490.572 278.788 490.78 278.668C490.988 278.548 491.136 278.372 491.224 278.14H492.676C492.548 278.804 492.232 279.304 491.728 279.64C491.224 279.976 490.6 280.144 489.856 280.144ZM489.796 274.792C489.548 274.792 489.308 274.832 489.076 274.912C488.844 274.992 488.66 275.136 488.524 275.344C488.388 275.544 488.312 275.812 488.296 276.148H491.26C491.252 275.788 491.18 275.512 491.044 275.32C490.916 275.12 490.744 274.984 490.528 274.912C490.312 274.832 490.068 274.792 489.796 274.792ZM494.949 280V273.64H496.389V274.588C496.477 274.404 496.597 274.232 496.749 274.072C496.901 273.912 497.089 273.776 497.313 273.664C497.537 273.552 497.785 273.496 498.057 273.496C498.209 273.496 498.337 273.504 498.441 273.52C498.553 273.536 498.625 273.552 498.657 273.568V274.972C498.577 274.94 498.473 274.912 498.345 274.888C498.225 274.856 498.061 274.84 497.853 274.84C497.533 274.84 497.273 274.908 497.073 275.044C496.881 275.18 496.741 275.36 496.653 275.584C496.565 275.8 496.521 276.036 496.521 276.292V280H494.949ZM502.935 280L500.247 273.64H502.023L503.751 278.032L505.335 273.64H506.967L504.519 280H502.935ZM511.454 280.144C510.878 280.144 510.346 280.028 509.858 279.796C509.378 279.556 508.994 279.196 508.706 278.716C508.418 278.228 508.274 277.616 508.274 276.88V276.64C508.274 275.936 508.41 275.352 508.682 274.888C508.962 274.424 509.334 274.076 509.798 273.844C510.262 273.612 510.774 273.496 511.334 273.496C512.334 273.496 513.094 273.76 513.614 274.288C514.134 274.816 514.394 275.58 514.394 276.58V277.252H509.894C509.91 277.628 509.99 277.936 510.134 278.176C510.286 278.408 510.478 278.58 510.71 278.692C510.942 278.796 511.19 278.848 511.454 278.848C511.862 278.848 512.17 278.788 512.378 278.668C512.586 278.548 512.734 278.372 512.822 278.14H514.274C514.146 278.804 513.83 279.304 513.326 279.64C512.822 279.976 512.198 280.144 511.454 280.144ZM511.394 274.792C511.146 274.792 510.906 274.832 510.674 274.912C510.442 274.992 510.258 275.136 510.122 275.344C509.986 275.544 509.91 275.812 509.894 276.148H512.858C512.85 275.788 512.778 275.512 512.642 275.32C512.514 275.12 512.342 274.984 512.126 274.912C511.91 274.832 511.666 274.792 511.394 274.792ZM519.114 280.144C518.594 280.144 518.158 280.092 517.806 279.988C517.454 279.876 517.162 279.728 516.93 279.544C516.706 279.352 516.538 279.136 516.426 278.896C516.322 278.656 516.258 278.404 516.234 278.14H517.818C517.858 278.348 517.982 278.52 518.19 278.656C518.398 278.784 518.706 278.848 519.114 278.848C519.578 278.848 519.91 278.784 520.11 278.656C520.31 278.528 520.41 278.364 520.41 278.164C520.41 278.02 520.366 277.904 520.278 277.816C520.19 277.72 520.034 277.64 519.81 277.576C519.586 277.504 519.27 277.432 518.862 277.36C518.51 277.312 518.186 277.248 517.89 277.168C517.594 277.08 517.334 276.96 517.11 276.808C516.894 276.656 516.722 276.468 516.594 276.244C516.474 276.012 516.414 275.732 516.414 275.404C516.414 275.052 516.518 274.732 516.726 274.444C516.942 274.156 517.25 273.928 517.65 273.76C518.058 273.584 518.546 273.496 519.114 273.496C519.73 273.496 520.222 273.592 520.59 273.784C520.958 273.976 521.234 274.224 521.418 274.528C521.602 274.832 521.714 275.156 521.754 275.5H520.17C520.106 275.268 519.982 275.092 519.798 274.972C519.614 274.852 519.386 274.792 519.114 274.792C518.714 274.792 518.426 274.856 518.25 274.984C518.082 275.104 517.998 275.256 517.998 275.44C517.998 275.632 518.09 275.78 518.274 275.884C518.466 275.988 518.854 276.08 519.438 276.16C519.798 276.208 520.13 276.28 520.434 276.376C520.746 276.464 521.018 276.584 521.25 276.736C521.482 276.888 521.662 277.08 521.79 277.312C521.926 277.536 521.994 277.812 521.994 278.14C521.994 278.532 521.886 278.88 521.67 279.184C521.462 279.48 521.142 279.716 520.71 279.892C520.286 280.06 519.754 280.144 519.114 280.144Z" fill="#41653B"/>
<path d="M386.763 421V412.6H389.679C390.527 412.6 391.251 412.752 391.851 413.056C392.451 413.36 392.907 413.812 393.219 414.412C393.539 415.004 393.699 415.74 393.699 416.62V416.86C393.699 417.756 393.535 418.512 393.207 419.128C392.879 419.744 392.403 420.212 391.779 420.532C391.163 420.844 390.423 421 389.559 421H386.763ZM388.551 419.512H389.439C389.879 419.512 390.279 419.428 390.639 419.26C390.999 419.092 391.287 418.816 391.503 418.432C391.727 418.04 391.839 417.516 391.839 416.86V416.62C391.839 415.996 391.739 415.5 391.539 415.132C391.339 414.756 391.063 414.488 390.711 414.328C390.367 414.168 389.983 414.088 389.559 414.088H388.551V419.512ZM396.163 421V414.64H397.735V421H396.163ZM396.943 414.028C396.663 414.028 396.431 413.94 396.247 413.764C396.071 413.588 395.983 413.36 395.983 413.08C395.983 412.8 396.071 412.572 396.247 412.396C396.431 412.22 396.659 412.132 396.931 412.132C397.219 412.132 397.451 412.22 397.627 412.396C397.811 412.572 397.903 412.8 397.903 413.08C397.903 413.36 397.811 413.588 397.627 413.764C397.451 413.94 397.223 414.028 396.943 414.028ZM402.868 421.144C402.348 421.144 401.912 421.092 401.56 420.988C401.208 420.876 400.916 420.728 400.684 420.544C400.46 420.352 400.292 420.136 400.18 419.896C400.076 419.656 400.012 419.404 399.988 419.14H401.572C401.612 419.348 401.736 419.52 401.944 419.656C402.152 419.784 402.46 419.848 402.868 419.848C403.332 419.848 403.664 419.784 403.864 419.656C404.064 419.528 404.164 419.364 404.164 419.164C404.164 419.02 404.12 418.904 404.032 418.816C403.944 418.72 403.788 418.64 403.564 418.576C403.34 418.504 403.024 418.432 402.616 418.36C402.264 418.312 401.94 418.248 401.644 418.168C401.348 418.08 401.088 417.96 400.864 417.808C400.648 417.656 400.476 417.468 400.348 417.244C400.228 417.012 400.168 416.732 400.168 416.404C400.168 416.052 400.272 415.732 400.48 415.444C400.696 415.156 401.004 414.928 401.404 414.76C401.812 414.584 402.3 414.496 402.868 414.496C403.484 414.496 403.976 414.592 404.344 414.784C404.712 414.976 404.988 415.224 405.172 415.528C405.356 415.832 405.468 416.156 405.508 416.5H403.924C403.86 416.268 403.736 416.092 403.552 415.972C403.368 415.852 403.14 415.792 402.868 415.792C402.468 415.792 402.18 415.856 402.004 415.984C401.836 416.104 401.752 416.256 401.752 416.44C401.752 416.632 401.844 416.78 402.028 416.884C402.22 416.988 402.608 417.08 403.192 417.16C403.552 417.208 403.884 417.28 404.188 417.376C404.5 417.464 404.772 417.584 405.004 417.736C405.236 417.888 405.416 418.08 405.544 418.312C405.68 418.536 405.748 418.812 405.748 419.14C405.748 419.532 405.64 419.88 405.424 420.184C405.216 420.48 404.896 420.716 404.464 420.892C404.04 421.06 403.508 421.144 402.868 421.144ZM410.694 421.144C410.11 421.144 409.582 421.024 409.11 420.784C408.638 420.536 408.262 420.172 407.982 419.692C407.71 419.204 407.574 418.6 407.574 417.88V417.64C407.574 416.952 407.718 416.376 408.006 415.912C408.294 415.448 408.674 415.096 409.146 414.856C409.618 414.616 410.134 414.496 410.694 414.496C411.294 414.496 411.802 414.596 412.218 414.796C412.634 414.996 412.954 415.272 413.178 415.624C413.41 415.976 413.542 416.364 413.574 416.788H411.966C411.902 416.5 411.77 416.272 411.57 416.104C411.378 415.928 411.086 415.84 410.694 415.84C410.422 415.84 410.17 415.904 409.938 416.032C409.714 416.16 409.53 416.356 409.386 416.62C409.25 416.884 409.182 417.224 409.182 417.64V417.88C409.182 418.328 409.246 418.696 409.374 418.984C409.51 419.264 409.69 419.472 409.914 419.608C410.146 419.736 410.406 419.8 410.694 419.8C411.006 419.8 411.274 419.72 411.498 419.56C411.73 419.392 411.886 419.156 411.966 418.852H413.574C413.526 419.308 413.374 419.712 413.118 420.064C412.862 420.416 412.522 420.684 412.098 420.868C411.682 421.052 411.214 421.144 410.694 421.144ZM417.808 421.072C417.32 421.072 416.92 421.008 416.608 420.88C416.304 420.744 416.08 420.52 415.936 420.208C415.792 419.888 415.72 419.444 415.72 418.876V412.6H417.292V418.684C417.292 419.092 417.348 419.368 417.46 419.512C417.58 419.656 417.812 419.728 418.156 419.728C418.244 419.728 418.32 419.728 418.384 419.728C418.448 419.72 418.512 419.712 418.576 419.704V421.024C418.536 421.04 418.468 421.052 418.372 421.06C418.276 421.068 418.176 421.072 418.072 421.072C417.968 421.072 417.88 421.072 417.808 421.072ZM423.371 421.144C422.795 421.144 422.263 421.028 421.775 420.796C421.295 420.556 420.911 420.192 420.623 419.704C420.335 419.216 420.191 418.608 420.191 417.88V417.64C420.191 416.952 420.335 416.376 420.623 415.912C420.911 415.44 421.295 415.088 421.775 414.856C422.263 414.616 422.795 414.496 423.371 414.496C423.955 414.496 424.487 414.616 424.967 414.856C425.447 415.088 425.831 415.44 426.119 415.912C426.407 416.376 426.551 416.952 426.551 417.64V417.88C426.551 418.592 426.407 419.192 426.119 419.68C425.831 420.168 425.447 420.536 424.967 420.784C424.487 421.024 423.955 421.144 423.371 421.144ZM423.371 419.8C423.675 419.8 423.943 419.732 424.175 419.596C424.415 419.452 424.603 419.236 424.739 418.948C424.875 418.66 424.943 418.304 424.943 417.88V417.64C424.943 417.248 424.875 416.92 424.739 416.656C424.603 416.392 424.415 416.192 424.175 416.056C423.943 415.912 423.675 415.84 423.371 415.84C423.067 415.84 422.795 415.912 422.555 416.056C422.323 416.192 422.139 416.392 422.003 416.656C421.867 416.92 421.799 417.248 421.799 417.64V417.88C421.799 418.312 421.867 418.672 422.003 418.96C422.139 419.24 422.323 419.452 422.555 419.596C422.795 419.732 423.067 419.8 423.371 419.8ZM431.267 421.144C430.747 421.144 430.311 421.092 429.959 420.988C429.607 420.876 429.315 420.728 429.083 420.544C428.859 420.352 428.691 420.136 428.579 419.896C428.475 419.656 428.411 419.404 428.387 419.14H429.971C430.011 419.348 430.135 419.52 430.343 419.656C430.551 419.784 430.859 419.848 431.267 419.848C431.731 419.848 432.063 419.784 432.263 419.656C432.463 419.528 432.563 419.364 432.563 419.164C432.563 419.02 432.519 418.904 432.431 418.816C432.343 418.72 432.187 418.64 431.963 418.576C431.739 418.504 431.423 418.432 431.015 418.36C430.663 418.312 430.339 418.248 430.043 418.168C429.747 418.08 429.487 417.96 429.263 417.808C429.047 417.656 428.875 417.468 428.747 417.244C428.627 417.012 428.567 416.732 428.567 416.404C428.567 416.052 428.671 415.732 428.879 415.444C429.095 415.156 429.403 414.928 429.803 414.76C430.211 414.584 430.699 414.496 431.267 414.496C431.883 414.496 432.375 414.592 432.743 414.784C433.111 414.976 433.387 415.224 433.571 415.528C433.755 415.832 433.867 416.156 433.907 416.5H432.323C432.259 416.268 432.135 416.092 431.951 415.972C431.767 415.852 431.539 415.792 431.267 415.792C430.867 415.792 430.579 415.856 430.403 415.984C430.235 416.104 430.151 416.256 430.151 416.44C430.151 416.632 430.243 416.78 430.427 416.884C430.619 416.988 431.007 417.08 431.591 417.16C431.951 417.208 432.283 417.28 432.587 417.376C432.899 417.464 433.171 417.584 433.403 417.736C433.635 417.888 433.815 418.08 433.943 418.312C434.079 418.536 434.147 418.812 434.147 419.14C434.147 419.532 434.039 419.88 433.823 420.184C433.615 420.48 433.295 420.716 432.863 420.892C432.439 421.06 431.907 421.144 431.267 421.144ZM438.457 421.144C437.721 421.144 437.165 420.936 436.789 420.52C436.413 420.096 436.225 419.444 436.225 418.564V414.64H437.797V418.348C437.797 418.828 437.889 419.192 438.073 419.44C438.265 419.68 438.585 419.8 439.033 419.8C439.353 419.8 439.609 419.732 439.801 419.596C440.001 419.46 440.149 419.284 440.245 419.068C440.341 418.852 440.389 418.612 440.389 418.348V414.64H441.973V421H440.509V420.052C440.357 420.348 440.113 420.604 439.777 420.82C439.449 421.036 439.009 421.144 438.457 421.144ZM444.421 421V414.64H445.861V415.588C445.949 415.404 446.069 415.232 446.221 415.072C446.373 414.912 446.561 414.776 446.785 414.664C447.009 414.552 447.257 414.496 447.529 414.496C447.681 414.496 447.809 414.504 447.913 414.52C448.025 414.536 448.097 414.552 448.129 414.568V415.972C448.049 415.94 447.945 415.912 447.817 415.888C447.697 415.856 447.533 415.84 447.325 415.84C447.005 415.84 446.745 415.908 446.545 416.044C446.353 416.18 446.213 416.36 446.125 416.584C446.037 416.8 445.993 417.036 445.993 417.292V421H444.421ZM452.848 421.144C452.272 421.144 451.74 421.028 451.252 420.796C450.772 420.556 450.388 420.196 450.1 419.716C449.812 419.228 449.668 418.616 449.668 417.88V417.64C449.668 416.936 449.804 416.352 450.076 415.888C450.356 415.424 450.728 415.076 451.192 414.844C451.656 414.612 452.168 414.496 452.728 414.496C453.728 414.496 454.488 414.76 455.008 415.288C455.528 415.816 455.788 416.58 455.788 417.58V418.252H451.288C451.304 418.628 451.384 418.936 451.528 419.176C451.68 419.408 451.872 419.58 452.104 419.692C452.336 419.796 452.584 419.848 452.848 419.848C453.256 419.848 453.564 419.788 453.772 419.668C453.98 419.548 454.128 419.372 454.216 419.14H455.668C455.54 419.804 455.224 420.304 454.72 420.64C454.216 420.976 453.592 421.144 452.848 421.144ZM452.788 415.792C452.54 415.792 452.3 415.832 452.068 415.912C451.836 415.992 451.652 416.136 451.516 416.344C451.38 416.544 451.304 416.812 451.288 417.148H454.252C454.244 416.788 454.172 416.512 454.036 416.32C453.908 416.12 453.736 415.984 453.52 415.912C453.304 415.832 453.06 415.792 452.788 415.792Z" fill="#41653B"/>
<path d="M170.042 421V412.6H175.79V414.088H171.83V416.2H175.43V417.64H171.83V421H170.042ZM180.748 421.144C180.172 421.144 179.64 421.028 179.152 420.796C178.672 420.556 178.288 420.192 178 419.704C177.712 419.216 177.568 418.608 177.568 417.88V417.64C177.568 416.952 177.712 416.376 178 415.912C178.288 415.44 178.672 415.088 179.152 414.856C179.64 414.616 180.172 414.496 180.748 414.496C181.332 414.496 181.864 414.616 182.344 414.856C182.824 415.088 183.208 415.44 183.496 415.912C183.784 416.376 183.928 416.952 183.928 417.64V417.88C183.928 418.592 183.784 419.192 183.496 419.68C183.208 420.168 182.824 420.536 182.344 420.784C181.864 421.024 181.332 421.144 180.748 421.144ZM180.748 419.8C181.052 419.8 181.32 419.732 181.552 419.596C181.792 419.452 181.98 419.236 182.116 418.948C182.252 418.66 182.32 418.304 182.32 417.88V417.64C182.32 417.248 182.252 416.92 182.116 416.656C181.98 416.392 181.792 416.192 181.552 416.056C181.32 415.912 181.052 415.84 180.748 415.84C180.444 415.84 180.172 415.912 179.932 416.056C179.7 416.192 179.516 416.392 179.38 416.656C179.244 416.92 179.176 417.248 179.176 417.64V417.88C179.176 418.312 179.244 418.672 179.38 418.96C179.516 419.24 179.7 419.452 179.932 419.596C180.172 419.732 180.444 419.8 180.748 419.8ZM186.076 421V414.64H187.516V415.588C187.604 415.404 187.724 415.232 187.876 415.072C188.028 414.912 188.216 414.776 188.44 414.664C188.664 414.552 188.912 414.496 189.184 414.496C189.336 414.496 189.464 414.504 189.568 414.52C189.68 414.536 189.752 414.552 189.784 414.568V415.972C189.704 415.94 189.6 415.912 189.472 415.888C189.352 415.856 189.188 415.84 188.98 415.84C188.66 415.84 188.4 415.908 188.2 416.044C188.008 416.18 187.868 416.36 187.78 416.584C187.692 416.8 187.648 417.036 187.648 417.292V421H186.076ZM194.502 421.144C193.926 421.144 193.394 421.028 192.906 420.796C192.426 420.556 192.042 420.196 191.754 419.716C191.466 419.228 191.322 418.616 191.322 417.88V417.64C191.322 416.936 191.458 416.352 191.73 415.888C192.01 415.424 192.382 415.076 192.846 414.844C193.31 414.612 193.822 414.496 194.382 414.496C195.382 414.496 196.142 414.76 196.662 415.288C197.182 415.816 197.442 416.58 197.442 417.58V418.252H192.942C192.958 418.628 193.038 418.936 193.182 419.176C193.334 419.408 193.526 419.58 193.758 419.692C193.99 419.796 194.238 419.848 194.502 419.848C194.91 419.848 195.218 419.788 195.426 419.668C195.634 419.548 195.782 419.372 195.87 419.14H197.322C197.194 419.804 196.878 420.304 196.374 420.64C195.87 420.976 195.246 421.144 194.502 421.144ZM194.442 415.792C194.194 415.792 193.954 415.832 193.722 415.912C193.49 415.992 193.306 416.136 193.17 416.344C193.034 416.544 192.958 416.812 192.942 417.148H195.906C195.898 416.788 195.826 416.512 195.69 416.32C195.562 416.12 195.39 415.984 195.174 415.912C194.958 415.832 194.714 415.792 194.442 415.792ZM202.403 421.144C201.819 421.144 201.291 421.024 200.819 420.784C200.347 420.536 199.971 420.172 199.691 419.692C199.419 419.204 199.283 418.6 199.283 417.88V417.64C199.283 416.952 199.427 416.376 199.715 415.912C200.003 415.448 200.383 415.096 200.855 414.856C201.327 414.616 201.843 414.496 202.403 414.496C203.003 414.496 203.511 414.596 203.927 414.796C204.343 414.996 204.663 415.272 204.887 415.624C205.119 415.976 205.251 416.364 205.283 416.788H203.675C203.611 416.5 203.479 416.272 203.279 416.104C203.087 415.928 202.795 415.84 202.403 415.84C202.131 415.84 201.879 415.904 201.647 416.032C201.423 416.16 201.239 416.356 201.095 416.62C200.959 416.884 200.891 417.224 200.891 417.64V417.88C200.891 418.328 200.955 418.696 201.083 418.984C201.219 419.264 201.399 419.472 201.623 419.608C201.855 419.736 202.115 419.8 202.403 419.8C202.715 419.8 202.983 419.72 203.207 419.56C203.439 419.392 203.595 419.156 203.675 418.852H205.283C205.235 419.308 205.083 419.712 204.827 420.064C204.571 420.416 204.231 420.684 203.807 420.868C203.391 421.052 202.923 421.144 202.403 421.144ZM209.265 421.144C208.809 421.144 208.421 421.06 208.101 420.892C207.781 420.716 207.537 420.476 207.369 420.172C207.201 419.868 207.117 419.524 207.117 419.14C207.117 418.5 207.305 418.02 207.681 417.7C208.065 417.38 208.637 417.22 209.397 417.22H211.293V416.92C211.293 416.504 211.197 416.212 211.005 416.044C210.821 415.876 210.525 415.792 210.117 415.792C209.757 415.792 209.497 415.856 209.337 415.984C209.177 416.104 209.085 416.256 209.061 416.44H207.477C207.501 416.072 207.617 415.744 207.825 415.456C208.041 415.16 208.345 414.928 208.737 414.76C209.137 414.584 209.617 414.496 210.177 414.496C210.721 414.496 211.193 414.576 211.593 414.736C212.001 414.896 212.317 415.156 212.541 415.516C212.765 415.868 212.877 416.344 212.877 416.944V419.38C212.877 419.716 212.881 420.012 212.889 420.268C212.905 420.516 212.929 420.76 212.961 421H211.485C211.453 420.824 211.433 420.692 211.425 420.604C211.425 420.508 211.425 420.368 211.425 420.184C211.257 420.44 210.993 420.664 210.633 420.856C210.273 421.048 209.817 421.144 209.265 421.144ZM209.757 419.92C210.013 419.92 210.257 419.876 210.489 419.788C210.729 419.692 210.921 419.548 211.065 419.356C211.217 419.156 211.293 418.904 211.293 418.6V418.3H209.697C209.393 418.3 209.153 418.372 208.977 418.516C208.809 418.652 208.725 418.84 208.725 419.08C208.725 419.336 208.813 419.54 208.989 419.692C209.165 419.844 209.421 419.92 209.757 419.92ZM217.839 421.144C217.319 421.144 216.883 421.092 216.531 420.988C216.179 420.876 215.887 420.728 215.655 420.544C215.431 420.352 215.263 420.136 215.151 419.896C215.047 419.656 214.983 419.404 214.959 419.14H216.543C216.583 419.348 216.707 419.52 216.915 419.656C217.123 419.784 217.431 419.848 217.839 419.848C218.303 419.848 218.635 419.784 218.835 419.656C219.035 419.528 219.135 419.364 219.135 419.164C219.135 419.02 219.091 418.904 219.003 418.816C218.915 418.72 218.759 418.64 218.535 418.576C218.311 418.504 217.995 418.432 217.587 418.36C217.235 418.312 216.911 418.248 216.615 418.168C216.319 418.08 216.059 417.96 215.835 417.808C215.619 417.656 215.447 417.468 215.319 417.244C215.199 417.012 215.139 416.732 215.139 416.404C215.139 416.052 215.243 415.732 215.451 415.444C215.667 415.156 215.975 414.928 216.375 414.76C216.783 414.584 217.271 414.496 217.839 414.496C218.455 414.496 218.947 414.592 219.315 414.784C219.683 414.976 219.959 415.224 220.143 415.528C220.327 415.832 220.439 416.156 220.479 416.5H218.895C218.831 416.268 218.707 416.092 218.523 415.972C218.339 415.852 218.111 415.792 217.839 415.792C217.439 415.792 217.151 415.856 216.975 415.984C216.807 416.104 216.723 416.256 216.723 416.44C216.723 416.632 216.815 416.78 216.999 416.884C217.191 416.988 217.579 417.08 218.163 417.16C218.523 417.208 218.855 417.28 219.159 417.376C219.471 417.464 219.743 417.584 219.975 417.736C220.207 417.888 220.387 418.08 220.515 418.312C220.651 418.536 220.719 418.812 220.719 419.14C220.719 419.532 220.611 419.88 220.395 420.184C220.187 420.48 219.867 420.716 219.435 420.892C219.011 421.06 218.479 421.144 217.839 421.144ZM225.425 421.072C224.929 421.072 224.521 421.004 224.201 420.868C223.881 420.724 223.645 420.496 223.493 420.184C223.349 419.872 223.277 419.468 223.277 418.972V415.96H222.425V414.64H223.277V413.2H224.849V414.64H226.385V415.96H224.849V418.72C224.849 419.08 224.913 419.34 225.041 419.5C225.177 419.652 225.425 419.728 225.785 419.728C226.025 419.728 226.265 419.716 226.505 419.692V421.012C226.353 421.028 226.193 421.04 226.025 421.048C225.865 421.064 225.665 421.072 225.425 421.072Z" fill="#41653B"/>
<path d="M83.4913 280.144C82.7633 280.144 82.1113 280 81.5353 279.712C80.9673 279.416 80.5193 278.956 80.1913 278.332C79.8713 277.7 79.7113 276.876 79.7113 275.86V275.62C79.7113 274.884 79.8073 274.256 79.9993 273.736C80.1913 273.208 80.4593 272.776 80.8033 272.44C81.1553 272.104 81.5593 271.856 82.0153 271.696C82.4713 271.536 82.9633 271.456 83.4913 271.456C83.9633 271.456 84.4033 271.516 84.8113 271.636C85.2273 271.748 85.5953 271.92 85.9153 272.152C86.2353 272.384 86.4913 272.684 86.6833 273.052C86.8833 273.42 86.9993 273.852 87.0313 274.348H85.1593C85.0713 273.876 84.8793 273.528 84.5833 273.304C84.2873 273.08 83.9233 272.968 83.4913 272.968C83.1553 272.968 82.8433 273.052 82.5553 273.22C82.2673 273.38 82.0313 273.652 81.8473 274.036C81.6713 274.42 81.5833 274.948 81.5833 275.62V275.86C81.5833 276.388 81.6393 276.832 81.7513 277.192C81.8633 277.544 82.0113 277.828 82.1953 278.044C82.3793 278.252 82.5833 278.404 82.8073 278.5C83.0313 278.588 83.2593 278.632 83.4913 278.632C83.9473 278.632 84.3233 278.516 84.6193 278.284C84.9153 278.044 85.0953 277.7 85.1593 277.252H87.0313C86.9913 277.772 86.8753 278.22 86.6833 278.596C86.4913 278.964 86.2393 279.264 85.9273 279.496C85.6153 279.72 85.2513 279.884 84.8353 279.988C84.4193 280.092 83.9713 280.144 83.4913 280.144ZM92.102 280.144C91.526 280.144 90.994 280.028 90.506 279.796C90.026 279.556 89.642 279.192 89.354 278.704C89.066 278.216 88.922 277.608 88.922 276.88V276.64C88.922 275.952 89.066 275.376 89.354 274.912C89.642 274.44 90.026 274.088 90.506 273.856C90.994 273.616 91.526 273.496 92.102 273.496C92.686 273.496 93.218 273.616 93.698 273.856C94.178 274.088 94.562 274.44 94.85 274.912C95.138 275.376 95.282 275.952 95.282 276.64V276.88C95.282 277.592 95.138 278.192 94.85 278.68C94.562 279.168 94.178 279.536 93.698 279.784C93.218 280.024 92.686 280.144 92.102 280.144ZM92.102 278.8C92.406 278.8 92.674 278.732 92.906 278.596C93.146 278.452 93.334 278.236 93.47 277.948C93.606 277.66 93.674 277.304 93.674 276.88V276.64C93.674 276.248 93.606 275.92 93.47 275.656C93.334 275.392 93.146 275.192 92.906 275.056C92.674 274.912 92.406 274.84 92.102 274.84C91.798 274.84 91.526 274.912 91.286 275.056C91.054 275.192 90.87 275.392 90.734 275.656C90.598 275.92 90.53 276.248 90.53 276.64V276.88C90.53 277.312 90.598 277.672 90.734 277.96C90.87 278.24 91.054 278.452 91.286 278.596C91.526 278.732 91.798 278.8 92.102 278.8ZM97.4293 280V273.64H98.8693V274.576C99.0293 274.288 99.2773 274.036 99.6133 273.82C99.9493 273.604 100.409 273.496 100.993 273.496C101.769 273.496 102.345 273.704 102.721 274.12C103.105 274.536 103.297 275.136 103.297 275.92V280H101.713V276.28C101.713 275.808 101.613 275.452 101.413 275.212C101.221 274.964 100.889 274.84 100.417 274.84C100.081 274.84 99.8093 274.908 99.6013 275.044C99.3933 275.18 99.2413 275.356 99.1453 275.572C99.0493 275.788 99.0013 276.024 99.0013 276.28V280H97.4293ZM108.263 280.144C107.743 280.144 107.307 280.092 106.955 279.988C106.603 279.876 106.311 279.728 106.079 279.544C105.855 279.352 105.687 279.136 105.575 278.896C105.471 278.656 105.407 278.404 105.383 278.14H106.967C107.007 278.348 107.131 278.52 107.339 278.656C107.547 278.784 107.855 278.848 108.263 278.848C108.727 278.848 109.059 278.784 109.259 278.656C109.459 278.528 109.559 278.364 109.559 278.164C109.559 278.02 109.515 277.904 109.427 277.816C109.339 277.72 109.183 277.64 108.959 277.576C108.735 277.504 108.419 277.432 108.011 277.36C107.659 277.312 107.335 277.248 107.039 277.168C106.743 277.08 106.483 276.96 106.259 276.808C106.043 276.656 105.871 276.468 105.743 276.244C105.623 276.012 105.563 275.732 105.563 275.404C105.563 275.052 105.667 274.732 105.875 274.444C106.091 274.156 106.399 273.928 106.799 273.76C107.207 273.584 107.695 273.496 108.263 273.496C108.879 273.496 109.371 273.592 109.739 273.784C110.107 273.976 110.383 274.224 110.567 274.528C110.751 274.832 110.863 275.156 110.903 275.5H109.319C109.255 275.268 109.131 275.092 108.947 274.972C108.763 274.852 108.535 274.792 108.263 274.792C107.863 274.792 107.575 274.856 107.399 274.984C107.231 275.104 107.147 275.256 107.147 275.44C107.147 275.632 107.239 275.78 107.423 275.884C107.615 275.988 108.003 276.08 108.587 276.16C108.947 276.208 109.279 276.28 109.583 276.376C109.895 276.464 110.167 276.584 110.399 276.736C110.631 276.888 110.811 277.08 110.939 277.312C111.075 277.536 111.143 277.812 111.143 278.14C111.143 278.532 111.035 278.88 110.819 279.184C110.611 279.48 110.291 279.716 109.859 279.892C109.435 280.06 108.903 280.144 108.263 280.144ZM113.401 280V273.64H114.973V280H113.401ZM114.181 273.028C113.901 273.028 113.669 272.94 113.485 272.764C113.309 272.588 113.221 272.36 113.221 272.08C113.221 271.8 113.309 271.572 113.485 271.396C113.669 271.22 113.897 271.132 114.169 271.132C114.457 271.132 114.689 271.22 114.865 271.396C115.049 271.572 115.141 271.8 115.141 272.08C115.141 272.36 115.049 272.588 114.865 272.764C114.689 272.94 114.461 273.028 114.181 273.028ZM120.107 280.144C119.587 280.144 119.151 280.092 118.799 279.988C118.447 279.876 118.155 279.728 117.923 279.544C117.699 279.352 117.531 279.136 117.419 278.896C117.315 278.656 117.251 278.404 117.227 278.14H118.811C118.851 278.348 118.975 278.52 119.183 278.656C119.391 278.784 119.699 278.848 120.107 278.848C120.571 278.848 120.903 278.784 121.103 278.656C121.303 278.528 121.403 278.364 121.403 278.164C121.403 278.02 121.359 277.904 121.271 277.816C121.183 277.72 121.027 277.64 120.803 277.576C120.579 277.504 120.263 277.432 119.855 277.36C119.503 277.312 119.179 277.248 118.883 277.168C118.587 277.08 118.327 276.96 118.103 276.808C117.887 276.656 117.715 276.468 117.587 276.244C117.467 276.012 117.407 275.732 117.407 275.404C117.407 275.052 117.511 274.732 117.719 274.444C117.935 274.156 118.243 273.928 118.643 273.76C119.051 273.584 119.539 273.496 120.107 273.496C120.723 273.496 121.215 273.592 121.583 273.784C121.951 273.976 122.227 274.224 122.411 274.528C122.595 274.832 122.707 275.156 122.747 275.5H121.163C121.099 275.268 120.975 275.092 120.791 274.972C120.607 274.852 120.379 274.792 120.107 274.792C119.707 274.792 119.419 274.856 119.243 274.984C119.075 275.104 118.991 275.256 118.991 275.44C118.991 275.632 119.083 275.78 119.267 275.884C119.459 275.988 119.847 276.08 120.431 276.16C120.791 276.208 121.123 276.28 121.427 276.376C121.739 276.464 122.011 276.584 122.243 276.736C122.475 276.888 122.655 277.08 122.783 277.312C122.919 277.536 122.987 277.812 122.987 278.14C122.987 278.532 122.879 278.88 122.663 279.184C122.455 279.48 122.135 279.716 121.703 279.892C121.279 280.06 120.747 280.144 120.107 280.144ZM127.693 280.072C127.197 280.072 126.789 280.004 126.469 279.868C126.149 279.724 125.913 279.496 125.761 279.184C125.617 278.872 125.545 278.468 125.545 277.972V274.96H124.693V273.64H125.545V272.2H127.117V273.64H128.653V274.96H127.117V277.72C127.117 278.08 127.181 278.34 127.309 278.5C127.445 278.652 127.693 278.728 128.053 278.728C128.293 278.728 128.533 278.716 128.773 278.692V280.012C128.621 280.028 128.461 280.04 128.293 280.048C128.133 280.064 127.933 280.072 127.693 280.072ZM133.739 280.144C133.163 280.144 132.631 280.028 132.143 279.796C131.663 279.556 131.279 279.196 130.991 278.716C130.703 278.228 130.559 277.616 130.559 276.88V276.64C130.559 275.936 130.695 275.352 130.967 274.888C131.247 274.424 131.619 274.076 132.083 273.844C132.547 273.612 133.059 273.496 133.619 273.496C134.619 273.496 135.379 273.76 135.899 274.288C136.419 274.816 136.679 275.58 136.679 276.58V277.252H132.179C132.195 277.628 132.275 277.936 132.419 278.176C132.571 278.408 132.763 278.58 132.995 278.692C133.227 278.796 133.475 278.848 133.739 278.848C134.147 278.848 134.455 278.788 134.663 278.668C134.871 278.548 135.019 278.372 135.107 278.14H136.559C136.431 278.804 136.115 279.304 135.611 279.64C135.107 279.976 134.483 280.144 133.739 280.144ZM133.679 274.792C133.431 274.792 133.191 274.832 132.959 274.912C132.727 274.992 132.543 275.136 132.407 275.344C132.271 275.544 132.195 275.812 132.179 276.148H135.143C135.135 275.788 135.063 275.512 134.927 275.32C134.799 275.12 134.627 274.984 134.411 274.912C134.195 274.832 133.951 274.792 133.679 274.792ZM138.832 280V273.64H140.272V274.576C140.432 274.288 140.68 274.036 141.016 273.82C141.352 273.604 141.812 273.496 142.396 273.496C143.172 273.496 143.748 273.704 144.124 274.12C144.508 274.536 144.7 275.136 144.7 275.92V280H143.116V276.28C143.116 275.808 143.016 275.452 142.816 275.212C142.624 274.964 142.292 274.84 141.82 274.84C141.484 274.84 141.212 274.908 141.004 275.044C140.796 275.18 140.644 275.356 140.548 275.572C140.452 275.788 140.404 276.024 140.404 276.28V280H138.832ZM149.905 280.144C149.321 280.144 148.793 280.024 148.321 279.784C147.849 279.536 147.473 279.172 147.193 278.692C146.921 278.204 146.785 277.6 146.785 276.88V276.64C146.785 275.952 146.929 275.376 147.217 274.912C147.505 274.448 147.885 274.096 148.357 273.856C148.829 273.616 149.345 273.496 149.905 273.496C150.505 273.496 151.013 273.596 151.429 273.796C151.845 273.996 152.165 274.272 152.389 274.624C152.621 274.976 152.753 275.364 152.785 275.788H151.177C151.113 275.5 150.981 275.272 150.781 275.104C150.589 274.928 150.297 274.84 149.905 274.84C149.633 274.84 149.381 274.904 149.149 275.032C148.925 275.16 148.741 275.356 148.597 275.62C148.461 275.884 148.393 276.224 148.393 276.64V276.88C148.393 277.328 148.457 277.696 148.585 277.984C148.721 278.264 148.901 278.472 149.125 278.608C149.357 278.736 149.617 278.8 149.905 278.8C150.217 278.8 150.485 278.72 150.709 278.56C150.941 278.392 151.097 278.156 151.177 277.852H152.785C152.737 278.308 152.585 278.712 152.329 279.064C152.073 279.416 151.733 279.684 151.309 279.868C150.893 280.052 150.425 280.144 149.905 280.144ZM155.728 282.544C155.608 282.544 155.488 282.532 155.368 282.508V281.164C155.488 281.188 155.608 281.2 155.728 281.2C155.888 281.2 156.02 281.16 156.124 281.08C156.236 281 156.336 280.872 156.424 280.696C156.52 280.52 156.624 280.288 156.736 280L154.048 273.64H155.824L157.552 278.032L159.136 273.64H160.768L158.32 280C158.088 280.6 157.864 281.084 157.648 281.452C157.432 281.828 157.176 282.104 156.88 282.28C156.592 282.456 156.208 282.544 155.728 282.544Z" fill="#41653B"/>
<defs>
<filter id="filter0_d_169_1464" x="0" y="0" width="620" height="553" filterUnits="userSpaceOnUse" color-interpolation-filters="sRGB">
<feFlood flood-opacity="0" result="BackgroundImageFix"/>
<feColorMatrix in="SourceAlpha" type="matrix" values="0 0 0 0 0 0 0 0 0 0 0 0 0 0 0 0 0 0 127 0" result="hardAlpha"/>
<feOffset dy="2"/>
<feGaussianBlur stdDeviation="24"/>
<feColorMatrix type="matrix" values="0 0 0 0 0 0 0 0 0 0 0 0 0 0 0 0 0 0 0.04 0"/>
<feBlend mode="normal" in2="BackgroundImageFix" result="effect1_dropShadow_169_1464"/>
<feBlend mode="normal" in="SourceGraphic" in2="effect1_dropShadow_169_1464" result="shape"/>
</filter>
</defs>
</svg>
