<svg width="620" height="553" viewBox="0 0 620 553" fill="none" xmlns="http://www.w3.org/2000/svg">
<g filter="url(#filter0_d_175_229)">
<rect x="48" y="46" width="524" height="457" rx="12" fill="white"/>
<rect x="48" y="46" width="524" height="457" rx="12" stroke="#09551F"/>
</g>
<path d="M183.637 467.192C182.677 467.192 181.845 467.021 181.141 466.68C180.437 466.339 179.893 465.821 179.509 465.128C179.125 464.435 178.933 463.565 178.933 462.52V455.8H181.317V462.296C181.317 463.256 181.504 463.976 181.877 464.456C182.25 464.936 182.837 465.176 183.637 465.176C184.437 465.176 185.024 464.936 185.397 464.456C185.77 463.976 185.957 463.261 185.957 462.312V455.8H188.341V462.52C188.341 463.565 188.149 464.435 187.765 465.128C187.392 465.821 186.853 466.339 186.149 466.68C185.445 467.021 184.608 467.192 183.637 467.192ZM191.46 467V458.52H193.38V459.768C193.594 459.384 193.924 459.048 194.372 458.76C194.82 458.472 195.434 458.328 196.212 458.328C197.247 458.328 198.015 458.605 198.516 459.16C199.028 459.715 199.284 460.515 199.284 461.56V467H197.172V462.04C197.172 461.411 197.039 460.936 196.772 460.616C196.516 460.285 196.074 460.12 195.444 460.12C194.996 460.12 194.634 460.211 194.356 460.392C194.079 460.573 193.876 460.808 193.748 461.096C193.62 461.384 193.556 461.699 193.556 462.04V467H191.46ZM202.308 467V458.52H204.404V467H202.308ZM203.348 457.704C202.975 457.704 202.665 457.587 202.42 457.352C202.185 457.117 202.068 456.813 202.068 456.44C202.068 456.067 202.185 455.763 202.42 455.528C202.665 455.293 202.969 455.176 203.332 455.176C203.716 455.176 204.025 455.293 204.26 455.528C204.505 455.763 204.628 456.067 204.628 456.44C204.628 456.813 204.505 457.117 204.26 457.352C204.025 457.587 203.721 457.704 203.348 457.704ZM207.972 467V460.28H206.916V458.52H207.972V458.2C207.972 457.656 208.068 457.203 208.26 456.84C208.452 456.467 208.766 456.184 209.204 455.992C209.652 455.8 210.249 455.704 210.996 455.704C211.156 455.704 211.353 455.709 211.588 455.72C211.833 455.72 212.036 455.731 212.196 455.752V457.544C212.036 457.523 211.86 457.512 211.668 457.512C211.486 457.501 211.316 457.496 211.156 457.496C210.75 457.496 210.468 457.565 210.308 457.704C210.148 457.832 210.068 458.051 210.068 458.36V458.52H212.036V460.28H210.068V467H207.972ZM218.003 467.192C217.235 467.192 216.526 467.037 215.875 466.728C215.235 466.408 214.723 465.923 214.339 465.272C213.955 464.621 213.763 463.811 213.763 462.84V462.52C213.763 461.603 213.955 460.835 214.339 460.216C214.723 459.587 215.235 459.117 215.875 458.808C216.526 458.488 217.235 458.328 218.003 458.328C218.782 458.328 219.491 458.488 220.131 458.808C220.771 459.117 221.283 459.587 221.667 460.216C222.051 460.835 222.243 461.603 222.243 462.52V462.84C222.243 463.789 222.051 464.589 221.667 465.24C221.283 465.891 220.771 466.381 220.131 466.712C219.491 467.032 218.782 467.192 218.003 467.192ZM218.003 465.4C218.408 465.4 218.766 465.309 219.075 465.128C219.395 464.936 219.646 464.648 219.827 464.264C220.008 463.88 220.099 463.405 220.099 462.84V462.52C220.099 461.997 220.008 461.56 219.827 461.208C219.646 460.856 219.395 460.589 219.075 460.408C218.766 460.216 218.408 460.12 218.003 460.12C217.598 460.12 217.235 460.216 216.915 460.408C216.606 460.589 216.36 460.856 216.179 461.208C215.998 461.56 215.907 461.997 215.907 462.52V462.84C215.907 463.416 215.998 463.896 216.179 464.28C216.36 464.653 216.606 464.936 216.915 465.128C217.235 465.309 217.598 465.4 218.003 465.4ZM224.773 467V458.52H226.693V459.784C226.81 459.539 226.97 459.309 227.173 459.096C227.376 458.883 227.626 458.701 227.925 458.552C228.224 458.403 228.554 458.328 228.917 458.328C229.12 458.328 229.29 458.339 229.429 458.36C229.578 458.381 229.674 458.403 229.717 458.424V460.296C229.61 460.253 229.472 460.216 229.301 460.184C229.141 460.141 228.922 460.12 228.645 460.12C228.218 460.12 227.872 460.211 227.605 460.392C227.349 460.573 227.162 460.813 227.045 461.112C226.928 461.4 226.869 461.715 226.869 462.056V467H224.773ZM232.007 467V458.52H233.927V459.784C234.119 459.411 234.429 459.075 234.855 458.776C235.293 458.477 235.794 458.328 236.359 458.328C237.042 458.328 237.575 458.467 237.959 458.744C238.354 459.021 238.631 459.389 238.791 459.848C239.026 459.4 239.362 459.037 239.799 458.76C240.247 458.472 240.775 458.328 241.383 458.328C242.279 458.328 242.962 458.589 243.431 459.112C243.911 459.635 244.151 460.424 244.151 461.48V467H242.039V461.96C242.039 461.288 241.927 460.813 241.703 460.536C241.49 460.259 241.143 460.12 240.663 460.12C240.386 460.12 240.13 460.195 239.895 460.344C239.661 460.483 239.469 460.691 239.319 460.968C239.181 461.245 239.111 461.576 239.111 461.96V467H237.015V461.96C237.015 461.288 236.903 460.813 236.679 460.536C236.466 460.259 236.119 460.12 235.639 460.12C235.362 460.12 235.101 460.195 234.855 460.344C234.621 460.483 234.434 460.691 234.295 460.968C234.167 461.245 234.103 461.576 234.103 461.96V467H232.007ZM256.871 467.192C255.911 467.192 255.079 467.021 254.375 466.68C253.671 466.339 253.127 465.821 252.743 465.128C252.359 464.435 252.167 463.565 252.167 462.52V455.8H254.551V462.296C254.551 463.256 254.738 463.976 255.111 464.456C255.485 464.936 256.071 465.176 256.871 465.176C257.671 465.176 258.258 464.936 258.631 464.456C259.005 463.976 259.191 463.261 259.191 462.312V455.8H261.575V462.52C261.575 463.565 261.383 464.435 260.999 465.128C260.626 465.821 260.087 466.339 259.383 466.68C258.679 467.021 257.842 467.192 256.871 467.192ZM264.695 467V458.52H266.615V459.768C266.828 459.384 267.159 459.048 267.607 458.76C268.055 458.472 268.668 458.328 269.447 458.328C270.481 458.328 271.249 458.605 271.751 459.16C272.263 459.715 272.519 460.515 272.519 461.56V467H270.407V462.04C270.407 461.411 270.273 460.936 270.007 460.616C269.751 460.285 269.308 460.12 268.679 460.12C268.231 460.12 267.868 460.211 267.591 460.392C267.313 460.573 267.111 460.808 266.983 461.096C266.855 461.384 266.791 461.699 266.791 462.04V467H264.695ZM278.566 467.192C277.83 467.192 277.19 467.032 276.646 466.712C276.113 466.392 275.697 465.912 275.398 465.272C275.11 464.621 274.966 463.811 274.966 462.84V462.52C274.966 461.603 275.11 460.835 275.398 460.216C275.697 459.597 276.118 459.128 276.662 458.808C277.206 458.488 277.841 458.328 278.566 458.328C279.153 458.328 279.665 458.456 280.102 458.712C280.55 458.957 280.908 459.288 281.174 459.704V455.8H283.27V467H281.318V465.752C281.105 466.136 280.769 466.472 280.31 466.76C279.852 467.048 279.27 467.192 278.566 467.192ZM279.062 465.4C279.489 465.4 279.857 465.32 280.166 465.16C280.486 465 280.732 464.755 280.902 464.424C281.084 464.083 281.174 463.661 281.174 463.16V462.2C281.174 461.731 281.084 461.347 280.902 461.048C280.721 460.739 280.465 460.509 280.134 460.36C279.814 460.2 279.457 460.12 279.062 460.12C278.486 460.12 278.017 460.323 277.654 460.728C277.292 461.123 277.11 461.72 277.11 462.52V462.84C277.11 463.715 277.297 464.36 277.67 464.776C278.044 465.192 278.508 465.4 279.062 465.4ZM290.05 467.192C289.282 467.192 288.573 467.037 287.922 466.728C287.282 466.408 286.77 465.928 286.386 465.288C286.002 464.637 285.81 463.821 285.81 462.84V462.52C285.81 461.581 285.991 460.803 286.354 460.184C286.727 459.565 287.223 459.101 287.842 458.792C288.461 458.483 289.143 458.328 289.89 458.328C291.223 458.328 292.237 458.68 292.93 459.384C293.623 460.088 293.97 461.107 293.97 462.44V463.336H287.97C287.991 463.837 288.098 464.248 288.29 464.568C288.493 464.877 288.749 465.107 289.058 465.256C289.367 465.395 289.698 465.464 290.05 465.464C290.594 465.464 291.005 465.384 291.282 465.224C291.559 465.064 291.757 464.829 291.874 464.52H293.81C293.639 465.405 293.218 466.072 292.546 466.52C291.874 466.968 291.042 467.192 290.05 467.192ZM289.97 460.056C289.639 460.056 289.319 460.109 289.01 460.216C288.701 460.323 288.455 460.515 288.274 460.792C288.093 461.059 287.991 461.416 287.97 461.864H291.922C291.911 461.384 291.815 461.016 291.634 460.76C291.463 460.493 291.234 460.312 290.946 460.216C290.658 460.109 290.333 460.056 289.97 460.056ZM296.507 467V458.52H298.427V459.784C298.545 459.539 298.705 459.309 298.907 459.096C299.11 458.883 299.361 458.701 299.659 458.552C299.958 458.403 300.289 458.328 300.651 458.328C300.854 458.328 301.025 458.339 301.163 458.36C301.313 458.381 301.409 458.403 301.451 458.424V460.296C301.345 460.253 301.206 460.216 301.035 460.184C300.875 460.141 300.657 460.12 300.379 460.12C299.953 460.12 299.606 460.211 299.339 460.392C299.083 460.573 298.897 460.813 298.779 461.112C298.662 461.4 298.603 461.715 298.603 462.056V467H296.507ZM305.766 467L303.398 458.52H305.67L307.046 464.12L308.758 458.52H310.71L312.502 464.12L313.958 458.52H316.038L313.67 467H311.558L309.686 461.08L307.878 467H305.766ZM318.335 467V458.52H320.255V459.784C320.373 459.539 320.533 459.309 320.735 459.096C320.938 458.883 321.189 458.701 321.487 458.552C321.786 458.403 322.117 458.328 322.479 458.328C322.682 458.328 322.853 458.339 322.991 458.36C323.141 458.381 323.237 458.403 323.279 458.424V460.296C323.173 460.253 323.034 460.216 322.863 460.184C322.703 460.141 322.485 460.12 322.207 460.12C321.781 460.12 321.434 460.211 321.167 460.392C320.911 460.573 320.725 460.813 320.607 461.112C320.49 461.4 320.431 461.715 320.431 462.056V467H318.335ZM325.73 467V458.52H327.826V467H325.73ZM326.77 457.704C326.396 457.704 326.087 457.587 325.842 457.352C325.607 457.117 325.49 456.813 325.49 456.44C325.49 456.067 325.607 455.763 325.842 455.528C326.087 455.293 326.391 455.176 326.754 455.176C327.138 455.176 327.447 455.293 327.682 455.528C327.927 455.763 328.05 456.067 328.05 456.44C328.05 456.813 327.927 457.117 327.682 457.352C327.447 457.587 327.143 457.704 326.77 457.704ZM334.338 467.096C333.676 467.096 333.132 467.005 332.706 466.824C332.279 466.632 331.964 466.328 331.762 465.912C331.57 465.496 331.474 464.957 331.474 464.296V460.28H330.338V458.52H331.474V456.6H333.57V458.52H335.618V460.28H333.57V463.96C333.57 464.44 333.655 464.787 333.826 465C334.007 465.203 334.338 465.304 334.818 465.304C335.138 465.304 335.458 465.288 335.778 465.256V467.016C335.575 467.037 335.362 467.053 335.138 467.064C334.924 467.085 334.658 467.096 334.338 467.096ZM338.48 467V458.52H340.576V467H338.48ZM339.52 457.704C339.146 457.704 338.837 457.587 338.592 457.352C338.357 457.117 338.24 456.813 338.24 456.44C338.24 456.067 338.357 455.763 338.592 455.528C338.837 455.293 339.141 455.176 339.504 455.176C339.888 455.176 340.197 455.293 340.432 455.528C340.677 455.763 340.8 456.067 340.8 456.44C340.8 456.813 340.677 457.117 340.432 457.352C340.197 457.587 339.893 457.704 339.52 457.704ZM343.664 467V458.52H345.584V459.768C345.797 459.384 346.128 459.048 346.576 458.76C347.024 458.472 347.637 458.328 348.416 458.328C349.45 458.328 350.218 458.605 350.72 459.16C351.232 459.715 351.488 460.515 351.488 461.56V467H349.376V462.04C349.376 461.411 349.242 460.936 348.976 460.616C348.72 460.285 348.277 460.12 347.648 460.12C347.2 460.12 346.837 460.211 346.56 460.392C346.282 460.573 346.08 460.808 345.952 461.096C345.824 461.384 345.76 461.699 345.76 462.04V467H343.664ZM358.015 470.392C357.119 470.392 356.404 470.28 355.871 470.056C355.338 469.843 354.943 469.544 354.687 469.16C354.442 468.776 354.298 468.323 354.255 467.8H356.399C356.463 468.024 356.607 468.232 356.831 468.424C357.055 468.627 357.45 468.728 358.015 468.728C358.73 468.728 359.263 468.557 359.615 468.216C359.967 467.875 360.143 467.363 360.143 466.68V465.656C359.876 466.072 359.519 466.408 359.071 466.664C358.623 466.909 358.111 467.032 357.535 467.032C356.799 467.032 356.159 466.872 355.615 466.552C355.082 466.232 354.666 465.757 354.367 465.128C354.079 464.488 353.935 463.699 353.935 462.76V462.44C353.935 461.555 354.079 460.808 354.367 460.2C354.666 459.592 355.087 459.128 355.631 458.808C356.175 458.488 356.81 458.328 357.535 458.328C358.239 458.328 358.82 458.472 359.279 458.76C359.738 459.048 360.074 459.384 360.287 459.768V458.52H362.239V466.52C362.239 467.779 361.892 468.739 361.199 469.4C360.506 470.061 359.444 470.392 358.015 470.392ZM358.031 465.24C358.458 465.24 358.826 465.165 359.135 465.016C359.455 464.856 359.7 464.611 359.871 464.28C360.052 463.949 360.143 463.549 360.143 463.08V462.12C360.143 461.672 360.052 461.304 359.871 461.016C359.69 460.728 359.434 460.509 359.103 460.36C358.783 460.2 358.426 460.12 358.031 460.12C357.455 460.12 356.986 460.317 356.623 460.712C356.26 461.096 356.079 461.672 356.079 462.44V462.76C356.079 463.581 356.266 464.2 356.639 464.616C357.012 465.032 357.476 465.24 358.031 465.24ZM370.515 467V455.8H378.179V457.784H372.899V460.6H377.699V462.52H372.899V467H370.515ZM380.71 467V458.52H382.63V459.784C382.748 459.539 382.908 459.309 383.11 459.096C383.313 458.883 383.564 458.701 383.862 458.552C384.161 458.403 384.492 458.328 384.854 458.328C385.057 458.328 385.228 458.339 385.366 458.36C385.516 458.381 385.612 458.403 385.654 458.424V460.296C385.548 460.253 385.409 460.216 385.238 460.184C385.078 460.141 384.86 460.12 384.582 460.12C384.156 460.12 383.809 460.211 383.542 460.392C383.286 460.573 383.1 460.813 382.982 461.112C382.865 461.4 382.806 461.715 382.806 462.056V467H380.71ZM390.223 467.192C389.615 467.192 389.097 467.08 388.671 466.856C388.244 466.621 387.919 466.301 387.695 465.896C387.471 465.491 387.359 465.032 387.359 464.52C387.359 463.667 387.609 463.027 388.111 462.6C388.623 462.173 389.385 461.96 390.399 461.96H392.927V461.56C392.927 461.005 392.799 460.616 392.543 460.392C392.297 460.168 391.903 460.056 391.359 460.056C390.879 460.056 390.532 460.141 390.319 460.312C390.105 460.472 389.983 460.675 389.951 460.92H387.839C387.871 460.429 388.025 459.992 388.303 459.608C388.591 459.213 388.996 458.904 389.519 458.68C390.052 458.445 390.692 458.328 391.439 458.328C392.164 458.328 392.793 458.435 393.327 458.648C393.871 458.861 394.292 459.208 394.591 459.688C394.889 460.157 395.039 460.792 395.039 461.592V464.84C395.039 465.288 395.044 465.683 395.055 466.024C395.076 466.355 395.108 466.68 395.151 467H393.183C393.14 466.765 393.113 466.589 393.103 466.472C393.103 466.344 393.103 466.157 393.103 465.912C392.879 466.253 392.527 466.552 392.047 466.808C391.567 467.064 390.959 467.192 390.223 467.192ZM390.879 465.56C391.22 465.56 391.545 465.501 391.855 465.384C392.175 465.256 392.431 465.064 392.623 464.808C392.825 464.541 392.927 464.205 392.927 463.8V463.4H390.799C390.393 463.4 390.073 463.496 389.839 463.688C389.615 463.869 389.503 464.12 389.503 464.44C389.503 464.781 389.62 465.053 389.855 465.256C390.089 465.459 390.431 465.56 390.879 465.56ZM397.898 467V458.52H399.818V459.784C400.01 459.411 400.319 459.075 400.746 458.776C401.183 458.477 401.685 458.328 402.25 458.328C402.933 458.328 403.466 458.467 403.85 458.744C404.245 459.021 404.522 459.389 404.682 459.848C404.917 459.4 405.253 459.037 405.69 458.76C406.138 458.472 406.666 458.328 407.274 458.328C408.17 458.328 408.853 458.589 409.322 459.112C409.802 459.635 410.042 460.424 410.042 461.48V467H407.93V461.96C407.93 461.288 407.818 460.813 407.594 460.536C407.381 460.259 407.034 460.12 406.554 460.12C406.277 460.12 406.021 460.195 405.786 460.344C405.551 460.483 405.359 460.691 405.21 460.968C405.071 461.245 405.002 461.576 405.002 461.96V467H402.906V461.96C402.906 461.288 402.794 460.813 402.57 460.536C402.357 460.259 402.01 460.12 401.53 460.12C401.253 460.12 400.991 460.195 400.746 460.344C400.511 460.483 400.325 460.691 400.186 460.968C400.058 461.245 399.994 461.576 399.994 461.96V467H397.898ZM416.722 467.192C415.954 467.192 415.245 467.037 414.594 466.728C413.954 466.408 413.442 465.928 413.058 465.288C412.674 464.637 412.482 463.821 412.482 462.84V462.52C412.482 461.581 412.663 460.803 413.026 460.184C413.399 459.565 413.895 459.101 414.514 458.792C415.133 458.483 415.815 458.328 416.562 458.328C417.895 458.328 418.909 458.68 419.602 459.384C420.295 460.088 420.642 461.107 420.642 462.44V463.336H414.642C414.663 463.837 414.77 464.248 414.962 464.568C415.165 464.877 415.421 465.107 415.73 465.256C416.039 465.395 416.37 465.464 416.722 465.464C417.266 465.464 417.677 465.384 417.954 465.224C418.231 465.064 418.429 464.829 418.546 464.52H420.482C420.311 465.405 419.89 466.072 419.218 466.52C418.546 466.968 417.714 467.192 416.722 467.192ZM416.642 460.056C416.311 460.056 415.991 460.109 415.682 460.216C415.373 460.323 415.127 460.515 414.946 460.792C414.765 461.059 414.663 461.416 414.642 461.864H418.594C418.583 461.384 418.487 461.016 418.306 460.76C418.135 460.493 417.906 460.312 417.618 460.216C417.33 460.109 417.005 460.056 416.642 460.056ZM424.735 467L422.367 458.52H424.639L426.015 464.12L427.727 458.52H429.679L431.471 464.12L432.927 458.52H435.007L432.639 467H430.527L428.655 461.08L426.847 467H424.735ZM440.972 467.192C440.204 467.192 439.495 467.037 438.844 466.728C438.204 466.408 437.692 465.923 437.308 465.272C436.924 464.621 436.732 463.811 436.732 462.84V462.52C436.732 461.603 436.924 460.835 437.308 460.216C437.692 459.587 438.204 459.117 438.844 458.808C439.495 458.488 440.204 458.328 440.972 458.328C441.751 458.328 442.46 458.488 443.1 458.808C443.74 459.117 444.252 459.587 444.636 460.216C445.02 460.835 445.212 461.603 445.212 462.52V462.84C445.212 463.789 445.02 464.589 444.636 465.24C444.252 465.891 443.74 466.381 443.1 466.712C442.46 467.032 441.751 467.192 440.972 467.192ZM440.972 465.4C441.377 465.4 441.735 465.309 442.044 465.128C442.364 464.936 442.615 464.648 442.796 464.264C442.977 463.88 443.068 463.405 443.068 462.84V462.52C443.068 461.997 442.977 461.56 442.796 461.208C442.615 460.856 442.364 460.589 442.044 460.408C441.735 460.216 441.377 460.12 440.972 460.12C440.567 460.12 440.204 460.216 439.884 460.408C439.575 460.589 439.329 460.856 439.148 461.208C438.967 461.56 438.876 461.997 438.876 462.52V462.84C438.876 463.416 438.967 463.896 439.148 464.28C439.329 464.653 439.575 464.936 439.884 465.128C440.204 465.309 440.567 465.4 440.972 465.4ZM447.742 467V458.52H449.662V459.784C449.779 459.539 449.939 459.309 450.142 459.096C450.344 458.883 450.595 458.701 450.894 458.552C451.192 458.403 451.523 458.328 451.886 458.328C452.088 458.328 452.259 458.339 452.398 458.36C452.547 458.381 452.643 458.403 452.686 458.424V460.296C452.579 460.253 452.44 460.216 452.27 460.184C452.11 460.141 451.891 460.12 451.614 460.12C451.187 460.12 450.84 460.211 450.574 460.392C450.318 460.573 450.131 460.813 450.014 461.112C449.896 461.4 449.838 461.715 449.838 462.056V467H447.742ZM454.976 467V455.8H457.072V462.008L460.208 458.52H462.624L459.376 462.152L462.944 467H460.512L458.016 463.544L457.072 464.552V467H454.976Z" fill="#41653B"/>
<path d="M204.322 412L206.968 402.326H209.39L212.022 412H210.902L210.216 409.55H206.128L205.442 412H204.322ZM206.366 408.556H209.978L208.536 403.278H207.808L206.366 408.556ZM215.532 412.14C215.317 412.14 215.056 412.126 214.748 412.098C214.449 412.07 214.151 412.037 213.852 412C213.553 411.953 213.287 411.911 213.054 411.874L213.11 410.936C213.343 410.964 213.605 410.997 213.894 411.034C214.193 411.071 214.482 411.104 214.762 411.132C215.042 411.151 215.266 411.16 215.434 411.16C215.817 411.16 216.134 411.127 216.386 411.062C216.638 410.987 216.829 410.866 216.96 410.698C217.091 410.53 217.156 410.292 217.156 409.984C217.156 409.751 217.105 409.569 217.002 409.438C216.909 409.307 216.727 409.2 216.456 409.116C216.195 409.032 215.812 408.953 215.308 408.878C214.785 408.794 214.347 408.691 213.992 408.57C213.647 408.439 213.39 408.248 213.222 407.996C213.054 407.744 212.97 407.385 212.97 406.918C212.97 406.395 213.091 405.985 213.334 405.686C213.577 405.387 213.889 405.177 214.272 405.056C214.664 404.925 215.07 404.86 215.49 404.86C215.751 404.86 216.036 404.874 216.344 404.902C216.661 404.93 216.969 404.967 217.268 405.014C217.567 405.051 217.823 405.089 218.038 405.126L218.01 406.064C217.786 406.027 217.525 405.994 217.226 405.966C216.927 405.929 216.629 405.901 216.33 405.882C216.031 405.854 215.77 405.84 215.546 405.84C215.266 405.84 215.014 405.873 214.79 405.938C214.566 405.994 214.389 406.097 214.258 406.246C214.127 406.395 214.062 406.605 214.062 406.876C214.062 407.081 214.109 407.249 214.202 407.38C214.295 407.501 214.473 407.604 214.734 407.688C214.995 407.772 215.373 407.856 215.868 407.94C216.447 408.033 216.909 408.15 217.254 408.29C217.609 408.43 217.865 408.626 218.024 408.878C218.183 409.13 218.262 409.485 218.262 409.942C218.262 410.483 218.15 410.917 217.926 411.244C217.711 411.561 217.399 411.79 216.988 411.93C216.587 412.07 216.101 412.14 215.532 412.14ZM222.053 412.14C221.839 412.14 221.577 412.126 221.269 412.098C220.971 412.07 220.672 412.037 220.373 412C220.075 411.953 219.809 411.911 219.575 411.874L219.631 410.936C219.865 410.964 220.126 410.997 220.415 411.034C220.714 411.071 221.003 411.104 221.283 411.132C221.563 411.151 221.787 411.16 221.955 411.16C222.338 411.16 222.655 411.127 222.907 411.062C223.159 410.987 223.351 410.866 223.481 410.698C223.612 410.53 223.677 410.292 223.677 409.984C223.677 409.751 223.626 409.569 223.523 409.438C223.43 409.307 223.248 409.2 222.977 409.116C222.716 409.032 222.333 408.953 221.829 408.878C221.307 408.794 220.868 408.691 220.513 408.57C220.168 408.439 219.911 408.248 219.743 407.996C219.575 407.744 219.491 407.385 219.491 406.918C219.491 406.395 219.613 405.985 219.855 405.686C220.098 405.387 220.411 405.177 220.793 405.056C221.185 404.925 221.591 404.86 222.011 404.86C222.273 404.86 222.557 404.874 222.865 404.902C223.183 404.93 223.491 404.967 223.789 405.014C224.088 405.051 224.345 405.089 224.559 405.126L224.531 406.064C224.307 406.027 224.046 405.994 223.747 405.966C223.449 405.929 223.15 405.901 222.851 405.882C222.553 405.854 222.291 405.84 222.067 405.84C221.787 405.84 221.535 405.873 221.311 405.938C221.087 405.994 220.91 406.097 220.779 406.246C220.649 406.395 220.583 406.605 220.583 406.876C220.583 407.081 220.63 407.249 220.723 407.38C220.817 407.501 220.994 407.604 221.255 407.688C221.517 407.772 221.895 407.856 222.389 407.94C222.968 408.033 223.43 408.15 223.775 408.29C224.13 408.43 224.387 408.626 224.545 408.878C224.704 409.13 224.783 409.485 224.783 409.942C224.783 410.483 224.671 410.917 224.447 411.244C224.233 411.561 223.92 411.79 223.509 411.93C223.108 412.07 222.623 412.14 222.053 412.14ZM228.869 412.14C228.169 412.14 227.613 412.005 227.203 411.734C226.801 411.463 226.512 411.062 226.335 410.53C226.157 409.998 226.069 409.335 226.069 408.542C226.069 407.655 226.19 406.946 226.433 406.414C226.675 405.873 227.016 405.481 227.455 405.238C227.893 404.986 228.411 404.86 229.009 404.86C229.942 404.86 230.647 405.121 231.123 405.644C231.599 406.157 231.837 406.988 231.837 408.136L231.781 408.962H227.175C227.184 409.69 227.319 410.241 227.581 410.614C227.842 410.987 228.313 411.174 228.995 411.174C229.256 411.174 229.541 411.169 229.849 411.16C230.166 411.141 230.479 411.123 230.787 411.104C231.095 411.085 231.356 411.067 231.571 411.048L231.599 411.902C231.375 411.939 231.099 411.977 230.773 412.014C230.455 412.051 230.129 412.079 229.793 412.098C229.457 412.126 229.149 412.14 228.869 412.14ZM227.175 408.08H230.745C230.745 407.221 230.605 406.624 230.325 406.288C230.054 405.943 229.615 405.77 229.009 405.77C228.617 405.77 228.285 405.849 228.015 406.008C227.744 406.157 227.534 406.4 227.385 406.736C227.245 407.072 227.175 407.52 227.175 408.08ZM235.714 412.154C235.229 412.154 234.841 412.079 234.552 411.93C234.272 411.781 234.071 411.524 233.95 411.16C233.829 410.787 233.768 410.264 233.768 409.592V405.938H232.774V405H233.768V402.858H234.846V405H237.044V405.938H234.846V409.27C234.846 409.765 234.865 410.152 234.902 410.432C234.949 410.703 235.042 410.894 235.182 411.006C235.322 411.118 235.541 411.174 235.84 411.174C235.933 411.174 236.055 411.169 236.204 411.16C236.353 411.151 236.503 411.141 236.652 411.132C236.811 411.113 236.951 411.099 237.072 411.09L237.142 412C237.011 412.019 236.857 412.037 236.68 412.056C236.503 412.084 236.325 412.107 236.148 412.126C235.98 412.145 235.835 412.154 235.714 412.154ZM240.717 412L243.363 402.326H245.785L248.417 412H247.297L246.611 409.55H242.523L241.837 412H240.717ZM242.761 408.556H246.373L244.931 403.278H244.203L242.761 408.556Z" fill="#3E4954"/>
<path d="M321.322 412L323.968 402.326H326.39L329.022 412H327.902L327.216 409.55H323.128L322.442 412H321.322ZM323.366 408.556H326.978L325.536 403.278H324.808L323.366 408.556ZM332.532 412.14C332.317 412.14 332.056 412.126 331.748 412.098C331.449 412.07 331.151 412.037 330.852 412C330.553 411.953 330.287 411.911 330.054 411.874L330.11 410.936C330.343 410.964 330.605 410.997 330.894 411.034C331.193 411.071 331.482 411.104 331.762 411.132C332.042 411.151 332.266 411.16 332.434 411.16C332.817 411.16 333.134 411.127 333.386 411.062C333.638 410.987 333.829 410.866 333.96 410.698C334.091 410.53 334.156 410.292 334.156 409.984C334.156 409.751 334.105 409.569 334.002 409.438C333.909 409.307 333.727 409.2 333.456 409.116C333.195 409.032 332.812 408.953 332.308 408.878C331.785 408.794 331.347 408.691 330.992 408.57C330.647 408.439 330.39 408.248 330.222 407.996C330.054 407.744 329.97 407.385 329.97 406.918C329.97 406.395 330.091 405.985 330.334 405.686C330.577 405.387 330.889 405.177 331.272 405.056C331.664 404.925 332.07 404.86 332.49 404.86C332.751 404.86 333.036 404.874 333.344 404.902C333.661 404.93 333.969 404.967 334.268 405.014C334.567 405.051 334.823 405.089 335.038 405.126L335.01 406.064C334.786 406.027 334.525 405.994 334.226 405.966C333.927 405.929 333.629 405.901 333.33 405.882C333.031 405.854 332.77 405.84 332.546 405.84C332.266 405.84 332.014 405.873 331.79 405.938C331.566 405.994 331.389 406.097 331.258 406.246C331.127 406.395 331.062 406.605 331.062 406.876C331.062 407.081 331.109 407.249 331.202 407.38C331.295 407.501 331.473 407.604 331.734 407.688C331.995 407.772 332.373 407.856 332.868 407.94C333.447 408.033 333.909 408.15 334.254 408.29C334.609 408.43 334.865 408.626 335.024 408.878C335.183 409.13 335.262 409.485 335.262 409.942C335.262 410.483 335.15 410.917 334.926 411.244C334.711 411.561 334.399 411.79 333.988 411.93C333.587 412.07 333.101 412.14 332.532 412.14ZM339.053 412.14C338.839 412.14 338.577 412.126 338.269 412.098C337.971 412.07 337.672 412.037 337.373 412C337.075 411.953 336.809 411.911 336.575 411.874L336.631 410.936C336.865 410.964 337.126 410.997 337.415 411.034C337.714 411.071 338.003 411.104 338.283 411.132C338.563 411.151 338.787 411.16 338.955 411.16C339.338 411.16 339.655 411.127 339.907 411.062C340.159 410.987 340.351 410.866 340.481 410.698C340.612 410.53 340.677 410.292 340.677 409.984C340.677 409.751 340.626 409.569 340.523 409.438C340.43 409.307 340.248 409.2 339.977 409.116C339.716 409.032 339.333 408.953 338.829 408.878C338.307 408.794 337.868 408.691 337.513 408.57C337.168 408.439 336.911 408.248 336.743 407.996C336.575 407.744 336.491 407.385 336.491 406.918C336.491 406.395 336.613 405.985 336.855 405.686C337.098 405.387 337.411 405.177 337.793 405.056C338.185 404.925 338.591 404.86 339.011 404.86C339.273 404.86 339.557 404.874 339.865 404.902C340.183 404.93 340.491 404.967 340.789 405.014C341.088 405.051 341.345 405.089 341.559 405.126L341.531 406.064C341.307 406.027 341.046 405.994 340.747 405.966C340.449 405.929 340.15 405.901 339.851 405.882C339.553 405.854 339.291 405.84 339.067 405.84C338.787 405.84 338.535 405.873 338.311 405.938C338.087 405.994 337.91 406.097 337.779 406.246C337.649 406.395 337.583 406.605 337.583 406.876C337.583 407.081 337.63 407.249 337.723 407.38C337.817 407.501 337.994 407.604 338.255 407.688C338.517 407.772 338.895 407.856 339.389 407.94C339.968 408.033 340.43 408.15 340.775 408.29C341.13 408.43 341.387 408.626 341.545 408.878C341.704 409.13 341.783 409.485 341.783 409.942C341.783 410.483 341.671 410.917 341.447 411.244C341.233 411.561 340.92 411.79 340.509 411.93C340.108 412.07 339.623 412.14 339.053 412.14ZM345.869 412.14C345.169 412.14 344.613 412.005 344.203 411.734C343.801 411.463 343.512 411.062 343.335 410.53C343.157 409.998 343.069 409.335 343.069 408.542C343.069 407.655 343.19 406.946 343.433 406.414C343.675 405.873 344.016 405.481 344.455 405.238C344.893 404.986 345.411 404.86 346.009 404.86C346.942 404.86 347.647 405.121 348.123 405.644C348.599 406.157 348.837 406.988 348.837 408.136L348.781 408.962H344.175C344.184 409.69 344.319 410.241 344.581 410.614C344.842 410.987 345.313 411.174 345.995 411.174C346.256 411.174 346.541 411.169 346.849 411.16C347.166 411.141 347.479 411.123 347.787 411.104C348.095 411.085 348.356 411.067 348.571 411.048L348.599 411.902C348.375 411.939 348.099 411.977 347.773 412.014C347.455 412.051 347.129 412.079 346.793 412.098C346.457 412.126 346.149 412.14 345.869 412.14ZM344.175 408.08H347.745C347.745 407.221 347.605 406.624 347.325 406.288C347.054 405.943 346.615 405.77 346.009 405.77C345.617 405.77 345.285 405.849 345.015 406.008C344.744 406.157 344.534 406.4 344.385 406.736C344.245 407.072 344.175 407.52 344.175 408.08ZM352.714 412.154C352.229 412.154 351.841 412.079 351.552 411.93C351.272 411.781 351.071 411.524 350.95 411.16C350.829 410.787 350.768 410.264 350.768 409.592V405.938H349.774V405H350.768V402.858H351.846V405H354.044V405.938H351.846V409.27C351.846 409.765 351.865 410.152 351.902 410.432C351.949 410.703 352.042 410.894 352.182 411.006C352.322 411.118 352.541 411.174 352.84 411.174C352.933 411.174 353.055 411.169 353.204 411.16C353.353 411.151 353.503 411.141 353.652 411.132C353.811 411.113 353.951 411.099 354.072 411.09L354.142 412C354.011 412.019 353.857 412.037 353.68 412.056C353.503 412.084 353.325 412.107 353.148 412.126C352.98 412.145 352.835 412.154 352.714 412.154ZM358.571 412V402.326H362.099C362.733 402.326 363.261 402.41 363.681 402.578C364.11 402.746 364.432 403.012 364.647 403.376C364.871 403.74 364.983 404.211 364.983 404.79C364.983 405.201 364.931 405.551 364.829 405.84C364.735 406.12 364.6 406.353 364.423 406.54C364.245 406.727 364.026 406.885 363.765 407.016C364.045 407.109 364.297 407.245 364.521 407.422C364.754 407.599 364.936 407.837 365.067 408.136C365.207 408.435 365.277 408.817 365.277 409.284C365.277 409.788 365.207 410.217 365.067 410.572C364.927 410.917 364.721 411.197 364.451 411.412C364.189 411.617 363.872 411.767 363.499 411.86C363.135 411.953 362.724 412 362.267 412H358.571ZM359.691 411.02H362.225C362.617 411.02 362.953 410.969 363.233 410.866C363.522 410.763 363.746 410.586 363.905 410.334C364.063 410.073 364.143 409.709 364.143 409.242C364.143 408.878 364.073 408.584 363.933 408.36C363.802 408.136 363.634 407.968 363.429 407.856C363.223 407.744 363.009 407.669 362.785 407.632C362.561 407.595 362.355 407.576 362.169 407.576H359.691V411.02ZM359.691 406.596H362.155C362.556 406.596 362.878 406.535 363.121 406.414C363.373 406.283 363.555 406.092 363.667 405.84C363.788 405.588 363.849 405.271 363.849 404.888C363.849 404.337 363.699 403.936 363.401 403.684C363.111 403.432 362.663 403.306 362.057 403.306H359.691V406.596Z" fill="#3E4954"/>
<path d="M439.322 412L441.968 402.326H444.39L447.022 412H445.902L445.216 409.55H441.128L440.442 412H439.322ZM441.366 408.556H444.978L443.536 403.278H442.808L441.366 408.556ZM450.532 412.14C450.317 412.14 450.056 412.126 449.748 412.098C449.449 412.07 449.151 412.037 448.852 412C448.553 411.953 448.287 411.911 448.054 411.874L448.11 410.936C448.343 410.964 448.605 410.997 448.894 411.034C449.193 411.071 449.482 411.104 449.762 411.132C450.042 411.151 450.266 411.16 450.434 411.16C450.817 411.16 451.134 411.127 451.386 411.062C451.638 410.987 451.829 410.866 451.96 410.698C452.091 410.53 452.156 410.292 452.156 409.984C452.156 409.751 452.105 409.569 452.002 409.438C451.909 409.307 451.727 409.2 451.456 409.116C451.195 409.032 450.812 408.953 450.308 408.878C449.785 408.794 449.347 408.691 448.992 408.57C448.647 408.439 448.39 408.248 448.222 407.996C448.054 407.744 447.97 407.385 447.97 406.918C447.97 406.395 448.091 405.985 448.334 405.686C448.577 405.387 448.889 405.177 449.272 405.056C449.664 404.925 450.07 404.86 450.49 404.86C450.751 404.86 451.036 404.874 451.344 404.902C451.661 404.93 451.969 404.967 452.268 405.014C452.567 405.051 452.823 405.089 453.038 405.126L453.01 406.064C452.786 406.027 452.525 405.994 452.226 405.966C451.927 405.929 451.629 405.901 451.33 405.882C451.031 405.854 450.77 405.84 450.546 405.84C450.266 405.84 450.014 405.873 449.79 405.938C449.566 405.994 449.389 406.097 449.258 406.246C449.127 406.395 449.062 406.605 449.062 406.876C449.062 407.081 449.109 407.249 449.202 407.38C449.295 407.501 449.473 407.604 449.734 407.688C449.995 407.772 450.373 407.856 450.868 407.94C451.447 408.033 451.909 408.15 452.254 408.29C452.609 408.43 452.865 408.626 453.024 408.878C453.183 409.13 453.262 409.485 453.262 409.942C453.262 410.483 453.15 410.917 452.926 411.244C452.711 411.561 452.399 411.79 451.988 411.93C451.587 412.07 451.101 412.14 450.532 412.14ZM457.053 412.14C456.839 412.14 456.577 412.126 456.269 412.098C455.971 412.07 455.672 412.037 455.373 412C455.075 411.953 454.809 411.911 454.575 411.874L454.631 410.936C454.865 410.964 455.126 410.997 455.415 411.034C455.714 411.071 456.003 411.104 456.283 411.132C456.563 411.151 456.787 411.16 456.955 411.16C457.338 411.16 457.655 411.127 457.907 411.062C458.159 410.987 458.351 410.866 458.481 410.698C458.612 410.53 458.677 410.292 458.677 409.984C458.677 409.751 458.626 409.569 458.523 409.438C458.43 409.307 458.248 409.2 457.977 409.116C457.716 409.032 457.333 408.953 456.829 408.878C456.307 408.794 455.868 408.691 455.513 408.57C455.168 408.439 454.911 408.248 454.743 407.996C454.575 407.744 454.491 407.385 454.491 406.918C454.491 406.395 454.613 405.985 454.855 405.686C455.098 405.387 455.411 405.177 455.793 405.056C456.185 404.925 456.591 404.86 457.011 404.86C457.273 404.86 457.557 404.874 457.865 404.902C458.183 404.93 458.491 404.967 458.789 405.014C459.088 405.051 459.345 405.089 459.559 405.126L459.531 406.064C459.307 406.027 459.046 405.994 458.747 405.966C458.449 405.929 458.15 405.901 457.851 405.882C457.553 405.854 457.291 405.84 457.067 405.84C456.787 405.84 456.535 405.873 456.311 405.938C456.087 405.994 455.91 406.097 455.779 406.246C455.649 406.395 455.583 406.605 455.583 406.876C455.583 407.081 455.63 407.249 455.723 407.38C455.817 407.501 455.994 407.604 456.255 407.688C456.517 407.772 456.895 407.856 457.389 407.94C457.968 408.033 458.43 408.15 458.775 408.29C459.13 408.43 459.387 408.626 459.545 408.878C459.704 409.13 459.783 409.485 459.783 409.942C459.783 410.483 459.671 410.917 459.447 411.244C459.233 411.561 458.92 411.79 458.509 411.93C458.108 412.07 457.623 412.14 457.053 412.14ZM463.869 412.14C463.169 412.14 462.613 412.005 462.203 411.734C461.801 411.463 461.512 411.062 461.335 410.53C461.157 409.998 461.069 409.335 461.069 408.542C461.069 407.655 461.19 406.946 461.433 406.414C461.675 405.873 462.016 405.481 462.455 405.238C462.893 404.986 463.411 404.86 464.009 404.86C464.942 404.86 465.647 405.121 466.123 405.644C466.599 406.157 466.837 406.988 466.837 408.136L466.781 408.962H462.175C462.184 409.69 462.319 410.241 462.581 410.614C462.842 410.987 463.313 411.174 463.995 411.174C464.256 411.174 464.541 411.169 464.849 411.16C465.166 411.141 465.479 411.123 465.787 411.104C466.095 411.085 466.356 411.067 466.571 411.048L466.599 411.902C466.375 411.939 466.099 411.977 465.773 412.014C465.455 412.051 465.129 412.079 464.793 412.098C464.457 412.126 464.149 412.14 463.869 412.14ZM462.175 408.08H465.745C465.745 407.221 465.605 406.624 465.325 406.288C465.054 405.943 464.615 405.77 464.009 405.77C463.617 405.77 463.285 405.849 463.015 406.008C462.744 406.157 462.534 406.4 462.385 406.736C462.245 407.072 462.175 407.52 462.175 408.08ZM470.714 412.154C470.229 412.154 469.841 412.079 469.552 411.93C469.272 411.781 469.071 411.524 468.95 411.16C468.829 410.787 468.768 410.264 468.768 409.592V405.938H467.774V405H468.768V402.858H469.846V405H472.044V405.938H469.846V409.27C469.846 409.765 469.865 410.152 469.902 410.432C469.949 410.703 470.042 410.894 470.182 411.006C470.322 411.118 470.541 411.174 470.84 411.174C470.933 411.174 471.055 411.169 471.204 411.16C471.353 411.151 471.503 411.141 471.652 411.132C471.811 411.113 471.951 411.099 472.072 411.09L472.142 412C472.011 412.019 471.857 412.037 471.68 412.056C471.503 412.084 471.325 412.107 471.148 412.126C470.98 412.145 470.835 412.154 470.714 412.154ZM476.686 412.14C475.958 412.14 475.361 412.033 474.894 411.818C474.437 411.603 474.078 411.286 473.816 410.866C473.555 410.446 473.373 409.928 473.27 409.312C473.177 408.696 473.13 407.987 473.13 407.184C473.13 406.363 473.177 405.639 473.27 405.014C473.373 404.389 473.555 403.866 473.816 403.446C474.078 403.026 474.437 402.709 474.894 402.494C475.361 402.279 475.958 402.172 476.686 402.172C477.022 402.172 477.354 402.191 477.68 402.228C478.016 402.256 478.329 402.298 478.618 402.354C478.908 402.401 479.155 402.447 479.36 402.494L479.318 403.432C479.113 403.395 478.861 403.357 478.562 403.32C478.264 403.283 477.96 403.25 477.652 403.222C477.344 403.194 477.064 403.18 476.812 403.18C476.28 403.18 475.846 403.259 475.51 403.418C475.184 403.577 474.932 403.824 474.754 404.16C474.577 404.487 474.456 404.902 474.39 405.406C474.325 405.901 474.292 406.493 474.292 407.184C474.292 407.856 474.325 408.444 474.39 408.948C474.456 409.443 474.572 409.853 474.74 410.18C474.918 410.497 475.174 410.735 475.51 410.894C475.846 411.053 476.285 411.132 476.826 411.132C477.218 411.132 477.648 411.109 478.114 411.062C478.59 411.006 478.992 410.95 479.318 410.894L479.36 411.846C479.136 411.893 478.875 411.939 478.576 411.986C478.278 412.033 477.965 412.07 477.638 412.098C477.312 412.126 476.994 412.14 476.686 412.14Z" fill="#3E4954"/>
<path d="M138.92 156.14C138.388 156.14 137.912 156.065 137.492 155.916C137.081 155.767 136.727 155.519 136.428 155.174C136.139 154.819 135.915 154.343 135.756 153.746C135.607 153.149 135.532 152.407 135.532 151.52C135.532 150.577 135.607 149.789 135.756 149.154C135.905 148.519 136.125 148.015 136.414 147.642C136.713 147.269 137.067 147.003 137.478 146.844C137.898 146.685 138.374 146.606 138.906 146.606C139.457 146.606 139.942 146.685 140.362 146.844C140.782 147.003 141.132 147.269 141.412 147.642C141.701 148.015 141.921 148.519 142.07 149.154C142.219 149.779 142.294 150.568 142.294 151.52C142.294 152.696 142.159 153.62 141.888 154.292C141.617 154.964 141.23 155.44 140.726 155.72C140.231 156 139.629 156.14 138.92 156.14ZM138.92 155.146C139.284 155.146 139.601 155.09 139.872 154.978C140.152 154.866 140.385 154.675 140.572 154.404C140.759 154.133 140.899 153.765 140.992 153.298C141.085 152.822 141.132 152.229 141.132 151.52C141.132 150.745 141.085 150.106 140.992 149.602C140.908 149.098 140.773 148.701 140.586 148.412C140.409 148.113 140.18 147.903 139.9 147.782C139.629 147.661 139.303 147.6 138.92 147.6C138.547 147.6 138.22 147.661 137.94 147.782C137.66 147.903 137.427 148.109 137.24 148.398C137.063 148.687 136.927 149.089 136.834 149.602C136.741 150.106 136.694 150.75 136.694 151.534C136.694 152.243 136.741 152.836 136.834 153.312C136.937 153.779 137.081 154.147 137.268 154.418C137.464 154.679 137.697 154.866 137.968 154.978C138.248 155.09 138.565 155.146 138.92 155.146ZM146.726 156.14C146.371 156.14 146.003 156.117 145.62 156.07C145.237 156.033 144.878 155.986 144.542 155.93C144.206 155.874 143.926 155.818 143.702 155.762L143.8 154.852C144.015 154.889 144.281 154.931 144.598 154.978C144.915 155.025 145.251 155.067 145.606 155.104C145.961 155.132 146.297 155.146 146.614 155.146C147.286 155.146 147.781 155.001 148.098 154.712C148.425 154.413 148.588 153.975 148.588 153.396C148.588 152.976 148.504 152.645 148.336 152.402C148.168 152.159 147.939 151.982 147.65 151.87C147.37 151.758 147.057 151.697 146.712 151.688H144.85V150.722H146.712C146.945 150.722 147.188 150.657 147.44 150.526C147.701 150.395 147.921 150.209 148.098 149.966C148.275 149.714 148.364 149.415 148.364 149.07C148.364 148.547 148.219 148.174 147.93 147.95C147.65 147.717 147.174 147.6 146.502 147.6C146.194 147.6 145.877 147.619 145.55 147.656C145.233 147.684 144.929 147.721 144.64 147.768C144.36 147.805 144.127 147.847 143.94 147.894L143.842 146.998C144.029 146.942 144.267 146.886 144.556 146.83C144.855 146.765 145.177 146.713 145.522 146.676C145.867 146.629 146.208 146.606 146.544 146.606C147.281 146.606 147.865 146.695 148.294 146.872C148.733 147.04 149.045 147.301 149.232 147.656C149.428 148.011 149.526 148.463 149.526 149.014C149.526 149.369 149.47 149.672 149.358 149.924C149.246 150.167 149.111 150.372 148.952 150.54C148.793 150.699 148.639 150.825 148.49 150.918C148.341 151.011 148.229 151.081 148.154 151.128C148.471 151.24 148.747 151.375 148.98 151.534C149.223 151.683 149.409 151.903 149.54 152.192C149.68 152.472 149.75 152.859 149.75 153.354C149.75 153.979 149.643 154.497 149.428 154.908C149.223 155.319 148.896 155.627 148.448 155.832C148 156.037 147.426 156.14 146.726 156.14Z" fill="#3E4954"/>
<path d="M138.92 258.14C138.388 258.14 137.912 258.065 137.492 257.916C137.081 257.767 136.727 257.519 136.428 257.174C136.139 256.819 135.915 256.343 135.756 255.746C135.607 255.149 135.532 254.407 135.532 253.52C135.532 252.577 135.607 251.789 135.756 251.154C135.905 250.519 136.125 250.015 136.414 249.642C136.713 249.269 137.067 249.003 137.478 248.844C137.898 248.685 138.374 248.606 138.906 248.606C139.457 248.606 139.942 248.685 140.362 248.844C140.782 249.003 141.132 249.269 141.412 249.642C141.701 250.015 141.921 250.519 142.07 251.154C142.219 251.779 142.294 252.568 142.294 253.52C142.294 254.696 142.159 255.62 141.888 256.292C141.617 256.964 141.23 257.44 140.726 257.72C140.231 258 139.629 258.14 138.92 258.14ZM138.92 257.146C139.284 257.146 139.601 257.09 139.872 256.978C140.152 256.866 140.385 256.675 140.572 256.404C140.759 256.133 140.899 255.765 140.992 255.298C141.085 254.822 141.132 254.229 141.132 253.52C141.132 252.745 141.085 252.106 140.992 251.602C140.908 251.098 140.773 250.701 140.586 250.412C140.409 250.113 140.18 249.903 139.9 249.782C139.629 249.661 139.303 249.6 138.92 249.6C138.547 249.6 138.22 249.661 137.94 249.782C137.66 249.903 137.427 250.109 137.24 250.398C137.063 250.687 136.927 251.089 136.834 251.602C136.741 252.106 136.694 252.75 136.694 253.534C136.694 254.243 136.741 254.836 136.834 255.312C136.937 255.779 137.081 256.147 137.268 256.418C137.464 256.679 137.697 256.866 137.968 256.978C138.248 257.09 138.565 257.146 138.92 257.146ZM143.8 258V257.048L146.46 254.262C146.843 253.861 147.174 253.501 147.454 253.184C147.734 252.857 147.949 252.54 148.098 252.232C148.247 251.915 148.322 251.579 148.322 251.224C148.322 250.617 148.154 250.202 147.818 249.978C147.491 249.745 146.997 249.628 146.334 249.628C146.091 249.628 145.821 249.647 145.522 249.684C145.223 249.712 144.934 249.749 144.654 249.796C144.383 249.833 144.15 249.875 143.954 249.922L143.87 248.998C144.066 248.942 144.309 248.886 144.598 248.83C144.887 248.774 145.2 248.727 145.536 248.69C145.881 248.643 146.217 248.62 146.544 248.62C147.524 248.62 148.257 248.816 148.742 249.208C149.237 249.6 149.484 250.23 149.484 251.098C149.484 251.555 149.409 251.966 149.26 252.33C149.12 252.694 148.905 253.053 148.616 253.408C148.336 253.753 147.977 254.141 147.538 254.57L145.116 257.02H149.708V258H143.8Z" fill="#3E4954"/>
<path d="M138.92 360.14C138.388 360.14 137.912 360.065 137.492 359.916C137.081 359.767 136.727 359.519 136.428 359.174C136.139 358.819 135.915 358.343 135.756 357.746C135.607 357.149 135.532 356.407 135.532 355.52C135.532 354.577 135.607 353.789 135.756 353.154C135.905 352.519 136.125 352.015 136.414 351.642C136.713 351.269 137.067 351.003 137.478 350.844C137.898 350.685 138.374 350.606 138.906 350.606C139.457 350.606 139.942 350.685 140.362 350.844C140.782 351.003 141.132 351.269 141.412 351.642C141.701 352.015 141.921 352.519 142.07 353.154C142.219 353.779 142.294 354.568 142.294 355.52C142.294 356.696 142.159 357.62 141.888 358.292C141.617 358.964 141.23 359.44 140.726 359.72C140.231 360 139.629 360.14 138.92 360.14ZM138.92 359.146C139.284 359.146 139.601 359.09 139.872 358.978C140.152 358.866 140.385 358.675 140.572 358.404C140.759 358.133 140.899 357.765 140.992 357.298C141.085 356.822 141.132 356.229 141.132 355.52C141.132 354.745 141.085 354.106 140.992 353.602C140.908 353.098 140.773 352.701 140.586 352.412C140.409 352.113 140.18 351.903 139.9 351.782C139.629 351.661 139.303 351.6 138.92 351.6C138.547 351.6 138.22 351.661 137.94 351.782C137.66 351.903 137.427 352.109 137.24 352.398C137.063 352.687 136.927 353.089 136.834 353.602C136.741 354.106 136.694 354.75 136.694 355.534C136.694 356.243 136.741 356.836 136.834 357.312C136.937 357.779 137.081 358.147 137.268 358.418C137.464 358.679 137.697 358.866 137.968 358.978C138.248 359.09 138.565 359.146 138.92 359.146ZM147.174 360V352.006L144.822 353.574L144.304 352.72L147.244 350.76H148.294V360H147.174Z" fill="#3E4954"/>
<path d="M371 278C371 273.582 367.418 270 363 270H320C315.582 270 312 273.582 312 278V391H371V278Z" fill="#88A78B"/>
<path d="M255.998 114C255.998 109.582 252.416 106 247.998 106H203C198.582 106 195 109.582 195 114V391.22H255.998V114Z" fill="#88A78B"/>
<path d="M486 146.997C486 142.579 482.418 138.997 478 138.997H438C433.582 138.997 430 142.579 430 146.997V391.219H486V146.997Z" fill="#88A78B"/>
<defs>
<filter id="filter0_d_175_229" x="0" y="0" width="620" height="553" filterUnits="userSpaceOnUse" color-interpolation-filters="sRGB">
<feFlood flood-opacity="0" result="BackgroundImageFix"/>
<feColorMatrix in="SourceAlpha" type="matrix" values="0 0 0 0 0 0 0 0 0 0 0 0 0 0 0 0 0 0 127 0" result="hardAlpha"/>
<feOffset dy="2"/>
<feGaussianBlur stdDeviation="24"/>
<feColorMatrix type="matrix" values="0 0 0 0 0 0 0 0 0 0 0 0 0 0 0 0 0 0 0.04 0"/>
<feBlend mode="normal" in2="BackgroundImageFix" result="effect1_dropShadow_175_229"/>
<feBlend mode="normal" in="SourceGraphic" in2="effect1_dropShadow_175_229" result="shape"/>
</filter>
</defs>
</svg>
